<svg version="1.2" xmlns="http://www.w3.org/2000/svg" viewBox="0 0 256 255" width="256" height="255">
	<title>TheMotlyMonkey</title>
	<style>
		.s0 { fill: #000000 } 
	</style>
	<g id="The Motley Monkey">
		<g id="&lt;Group&gt;">
			<path id="&lt;Compound Path&gt;" fill-rule="evenodd" class="s0" d="m256.6 129.2c0 0.6-0.1 1.2-0.1 1.8-0.2 13.9-2.8 27.5-7.7 40.5-12.4 32.9-34.5 56.9-66.3 72-11.1 5.2-22.7 8.6-34.9 10.3-5.8 0.9-11.7 1.3-17.6 1.5-4.9 0.1-9.8-0.3-14.6-0.7q-10.1-1-19.8-3.6c-13.9-3.6-26.8-9.4-38.6-17.4q-32.9-22.3-47.6-59.2c-4.5-11.3-7.2-22.9-8.4-35-4.9-53 23.9-104.5 73.6-127.4q16.9-7.8 35.3-10.5c4.5-0.6 8.9-1.1 13.4-1.2 0.4 0 0.8-0.1 1.2-0.1q4 0 8.1 0c0.4 0 0.7 0.1 1.1 0.1 5.1 0.2 10.1 0.7 15.1 1.5 15.4 2.4 29.9 7.4 43.4 15.2 25.5 14.7 43.9 35.7 55.1 62.9 5.8 14.3 9 29.2 9.2 44.7 0 0.6 0.1 1.2 0.1 1.8q0 1.4 0 2.8zm-4.9-1.4c0-4.9-0.3-9.7-0.9-14.5q-2.1-18.2-9.4-34.9c-13.6-31.4-39.8-55.8-71.9-67.2-13.5-4.8-27.5-7.2-41.9-7.2-5.6 0.1-11.1 0.5-16.7 1.4q-16.3 2.4-31.4 9c-51 22.4-80.7 75.8-72.8 130.9 1.9 13.4 5.8 26.2 12.1 38.3 15 29.1 37.9 49.3 68.7 60.6 18 6.5 36.5 8.6 55.5 6.3 11.7-1.4 22.9-4.4 33.6-9.1 28.8-12.6 50-33.1 63.5-61.5 7.8-16.5 11.5-33.9 11.6-52.1z"/>
			<path id="&lt;Compound Path&gt;" fill-rule="evenodd" class="s0" d="m128.6 249c-67.7-0.3-120.8-54.7-120.8-120.6 0-67.5 54.5-120.9 120.7-120.9 66.5 0 120.9 53.6 120.8 120.9 0 65.7-52.9 120.3-120.7 120.6zm118.8-120.8c-0.1-65.7-53.2-118.9-118.9-118.9-65.7 0-118.9 53.3-118.8 119.2 0.2 65.7 53.3 118.6 119 118.6 65.5 0 118.8-53.4 118.7-118.9z"/>
			<path id="&lt;Compound Path&gt;" fill-rule="evenodd" class="s0" d="m117.5 20.8c0.4-0.8 0.7-1.4 1.1-2 0.7-0.9 1.3-1.8 2.1-2.6 1.9-2 4.8-2.1 7-0.5 1.5 1.1 2.6 2.5 3.2 4.2 0.5 1.4 0.8 2.8 1.2 4.3q0.8-0.7 1.7-1.3c2-1.4 3.9-1.2 5.9 0 1.6 1.1 2.6 2.5 3.3 4.3 0.6 1.5 0.9 3.2 1 4.9 0.1 3.8-0.1 7.6-1.1 11.3q-0.1 0.3-0.1 0.7 0 0.8 0.8 0.7c0.2 0 0.4-0.1 0.6-0.1 0.2-0.1 0.4-0.1 0.6-0.1q0-2.3 0-4.7c0-3.4 0.9-6.4 3.2-9 1.5-1.7 3.4-2.7 5.8-2.7 0.7 0 1.4 0.1 2.1 0.3 0.6 0.2 1.2 0.5 2 0.9 0-0.4 0.2-0.8 0.1-1-0.4-1.5-0.2-2.8 0.9-3.7 1.2-1.1 2.7-1.2 4.2-0.8 1.1 0.3 2 0.8 2.8 1.5q1.5 1.5 3 3.1c1.2 1.4 2.4 2.9 3.6 4.3 0.1 0 0.2 0 0.3-0.1 0.9-1.3 0.7-1.9-0.8-2.6q-0.4-0.3-0.9-0.5c0.6-1 0.8-1.1 2.3-1 0-0.6-0.5-0.9-0.9-1.2-0.4-0.3-0.9-0.6-1.4-0.8 0.6-1 1-1.1 1.9-1 1.5 0.3 2.5 1.3 3.2 2.5 0.4 0.7 0.6 1.5 0.6 2.2-0.1 2 0.3 4-0.4 6 0 0.2 0 0.4 0 0.7 0.4 0.2 0.9 0.5 1.4 0.7 0.8 0.3 1.5 0.3 2.3-0.2 0.5-0.4 1.1-0.3 1.4 0.1 0.3 0.5 0.2 1-0.2 1.4-0.6 0.7-1.4 1.1-2.3 1.3-0.4 0.1-0.7 0.1-1.1 0.2q0.9 0.6 1.7 0.2 0.2 0 0.4-0.2c0.6-0.5 1.2-0.3 1.5 0 0.3 0.4 0.2 1.1-0.3 1.6-1.2 1.2-2.8 1.6-4.5 1.3-1-0.3-2-0.8-3.1-1.2-1.4 1.9-2.8 3.9-3.6 6.2 1 1 1.6 0.8 1.9-0.4 0.1-0.8 0.6-1.1 1.5-1 1 0.2 1.7 0.7 2.2 1.6 0.5 0.8 0.7 1.7 0.5 2.7-0.1 0.4-0.2 0.8-0.1 1.1 0.5 1.9-0.3 3.4-1.7 4.6-1.6 1.5-3.6 1.7-5.7 1.2-2.8-0.8-5.9-3.7-5.8-7.4 0.1-1.8 0-3.7 0.2-5.5 0.3-2.1 1.5-4 2.9-5.6 0.8-0.8 1.7-1.7 2.6-2.6-2-1.9-3.8-4-6.1-5.4-0.4-0.3-0.9-0.6-1.5-0.7-0.7-0.2-1.1 0.3-0.8 1 0.1 0.3 0.2 0.6 0.3 0.9 0.2 0.8 0.2 1.5-0.5 2.2 1.7 1.4 2.1 3.2 1.9 5.2-0.1 1.4 0 2.7-0.2 4-0.4 2.4-1.5 4.5-3.3 6.2-3.7 3.4-8.4 3-11.3-1-0.7-1-1.2-2.1-1.8-3.3q-0.4 0.6-0.7 1.2c0.9 1 0.9 1.6 0.2 2.7-1.3 1.7-4 2.1-6.1 0.9-1.3-0.8-2.3-1.9-2.7-3.4-0.4-1.2-0.6-2.4-0.7-3.6-0.2-4.2 0.3-8.2 1.4-12.2 0.1-0.3 0.2-0.7 0.3-1.1 0.2-0.7-0.1-1.2-0.6-1.6-0.6-0.4-1.2-0.4-1.7-0.1-1.1 0.7-2 1.5-2.4 2.7-0.5 1.5-0.8 3.1-1.2 4.6-0.3 1.6-0.6 3.2-0.8 4.8-0.1 0.5-0.1 1 0 1.4 0.1 0.8 0.5 1.1 1.3 1 0.8-0.1 1.2 0.2 1.1 0.9-0.1 0.7-0.4 1.2-0.6 1.9 0.7 0.7 0.8 1.2 0.3 2.1-0.3 0.8-0.9 1.3-1.8 1.6-2.9 0.9-5.8-0.5-6.9-3.3-0.8-1.8-1-3.6-1-5.5-0.2-4.4 0.3-8.8 1-13.1q0.3-2 0.6-4c0.1-0.9-0.1-1.4-0.7-1.8-0.6-0.3-1.3-0.2-2 0.5-1.4 1.5-2.3 3.3-2.7 5.3-0.4 2-0.6 4.1-0.9 6.1-0.2 1.7-0.5 3.3-0.6 5-0.1 0.9 0.1 1.8 0.3 2.7 0.1 0.3 0.3 0.6 0.6 0.8q0.7 0.6 1.2-0.2c0.3-0.5 0.5-0.9 1.1-0.8 0.5 0.1 0.9 0.6 0.8 1.3-0.1 1.2 0 2.4 0 3.6 0 1.6-1.1 2.6-2.5 3.1-2.1 0.9-4.2 0.5-6.2-0.5-2.9-1.6-4.2-4.1-4.4-7.3q-0.3-5.9 1.3-11.5c0.6-2.2 1-4.4 1.5-6.7 0.2-0.8-0.4-1.4-1.2-1.2-0.6 0.2-0.8 0.6-0.7 1.2q0.1 0.2 0.2 0.4c0.2 0.4 0.4 0.8 0 1.2-0.4 0.5-0.9 0.4-1.4 0.2-1-0.4-1.5-1.2-1.7-2.2q-0.1-0.6 0-1.2c0.1-0.7 0-1.5 0-2.3-0.2-1.9 1.2-3.7 3.4-4.2 2.8-0.6 5.3 0.4 6.8 3 0.4 0.6 0.7 1.3 1.1 2.2zm14.4 23.6c-1.6-0.1-2.4-0.8-2.6-2.3-0.1-0.9-0.1-1.9 0-2.8 0.5-3.2 1.2-6.3 1.7-9.4 0.3-1.9 1.5-3.2 3-4.3 1.5-1.1 3.3-0.5 3.8 1.3 0.2 0.8 0.3 1.7 0.1 2.5-0.3 1.6-0.7 3.2-1.1 4.8-0.7 2.4-1.1 4.8-0.9 7.2q0.2 2.7 1.8 4.9c1.2 1.5 3.5 2.2 5.1 1.4q1.5-0.6 1.4-2.1c-1.7 0.1-2.2-0.4-2.3-2q-0.1-0.9 0-1.7 0.2-1.2 0.5-2.4 1-3.8 0.9-7.6-0.1-3.1-1.6-5.9-0.9-1.6-2.5-2.5c-1.7-1.1-3.4-1.2-5.1 0.1-0.7 0.5-1.3 1.1-1.9 1.7-0.2 0.2-0.4 0.4-0.8 0.8-0.1-0.6-0.1-0.9-0.2-1.2-0.2-1.2-0.3-2.4-0.6-3.6-0.4-1.7-1.2-3.2-2.5-4.4-2.3-2.2-4.1-2.1-6.3-0.6-0.7 0.5-1.3 1.2-1.8 1.9-0.6 0.9-1.1 2-1.7 3q-0.4 0.6-0.8 1.3-0.2 0-0.3 0c-0.2-0.4-0.3-0.7-0.4-1.1-0.6-1.9-1.6-3.4-3.3-4.5-1.9-1.4-5-0.7-6.3 1.3-0.5 1-0.5 2.2 0.2 3 0.3 0.4 0.6 0.8 1.2 0.5-0.2-0.4-0.3-0.7-0.4-1-0.1-1 0.3-1.7 1.2-2 1-0.4 2.1 0 2.5 1.1 0.4 1 0.4 2.1 0.1 3.2q-1 4.7-2.2 9.5c-0.5 2.1-0.9 4.2-0.8 6.3 0.1 1.9 0.4 3.7 1.7 5.1q2 2.1 4.7 2.6c1.6 0.3 3.1-0.1 4.3-1.2 0.7-0.7 1.1-1.5 0.8-2.6-0.3 0.3-0.5 0.4-0.6 0.6-1 0.8-2.1 0.6-2.8-0.4-0.2-0.4-0.5-0.8-0.5-1.2-0.2-1.4-0.4-2.9-0.3-4.3 0.4-3.4 1-6.7 1.3-10.1 0.3-2.4 1.1-4.6 2.3-6.7 0.4-0.6 0.8-1.2 1.4-1.6 1.5-1.2 2.8-0.9 3.6 0.7 0.4 0.9 0.6 1.8 0.4 2.8q-0.3 1.3-0.5 2.6c-0.8 4.1-1.4 8.3-1.5 12.6-0.1 1.9 0.1 3.8 0.7 5.6 0.7 2 2.1 3.1 4.1 3.4 1.9 0.3 3.4-0.6 3.8-2.3zm27.1-15.9c1.2-1.5 1.9-1.6 3.6-0.5q0.9 0.6 1.6 1.2 3 2.9 6 5.7c0.7 0.7 0.7 0.9 0 1.6-1.1 1.1-2.3 2.2-3.3 3.3-1.7 1.7-2.8 3.8-3.3 6.1-0.8 3.9 1.4 7.6 5.2 8.8 2.3 0.6 4.8-0.3 6.1-2.2 0.3-0.5 0.5-1 0.6-1.6 0.3-1.2-0.6-2.7-1.7-3.1-0.6-0.3-1-0.1-1.2 0.6-0.1 0.5-0.4 0.9-0.9 1.1-1.2 0.5-2.3 0-2.6-1.3-0.3-1-0.2-2 0.2-2.9 0.9-2.6 2.5-4.8 4-7 0 0 0.2 0 0.3-0.1 0.3 0.2 0.7 0.5 1 0.7 1.7 1 3.5 1.3 5.3 0.3 0.5-0.2 0.9-0.5 0.9-1.4-1.5 1.1-2.9 0.8-4.2 0-0.4-0.2-0.7-0.5-1.1-0.8-0.6-0.5-0.8-1.1-0.4-1.9 0.4-0.9 0.6-1.9 0.9-2.9q0.4-1.7-0.1-3.3c-0.5-1.6-2.1-2.7-3.5-2.6 0.5 0.6 1.1 1.1 1.5 1.8 1 1.6 0.5 3.3-0.3 4.8-0.6 1.1-0.9 1.1-1.6 0.2-1.2-1.4-2.3-2.8-3.5-4.2q-1.4-1.5-2.9-3c-1-0.8-2.1-1.4-3.4-1.6-1.4-0.2-2.8 0.4-3.4 1.5-0.5 0.9-0.4 2 0.2 2.7zm0.5 5.9c0.6-0.9 0.3-1.5 0-2.2-1.3-2.8-5.2-4.2-8.3-2.8-1 0.4-2 1.1-2.7 1.9-3.5 3.7-4.1 10-1.5 14.3 2.7 4.3 7.8 4.8 11.2 1.1 1.5-1.6 2.4-3.5 2.9-5.7 0.3-1.4 0.2-2.9-0.5-4.3-0.6-1-1.4-1.4-2.5-1.2 1.3 1.1 1.7 1.8 1.6 3.1-0.3 1.9-1.3 3.4-3.2 4.2-1.6 0.7-3.1 0.1-3.9-1.4-0.8-1.6-0.9-3.3-0.3-5 0.4-1.4 1.2-2.5 2.6-3.2 1.5-0.8 3-0.5 4.2 0.7 0.1 0.2 0.2 0.3 0.4 0.5zm-0.9 3.1c-0.8-1.1-1.7-1.4-2.9-1q-1.7 0.5-2.5 2.2c-0.6 1.1-0.5 2 0.5 3 0.7 0.8 1.7 1 2.8 0.5 1-0.5 1.7-1.2 2.1-2.4-0.4-0.2-0.8-0.2-1.1-0.4-0.2-0.1-0.6-0.4-0.6-0.6 0-0.2 0.2-0.6 0.4-0.7 0.4-0.3 0.8-0.4 1.3-0.6z"/>
			<path id="&lt;Compound Path&gt;" fill-rule="evenodd" class="s0" d="m67.4 46.8c4.7-4.4 9-3.6 12.8 1.4 0-1.6-0.1-3.2-0.1-4.8 0-3.6 1.3-6.6 4.3-8.7 1.9-1.3 4.1-1.3 5.8-0.1 1.5 1.2 1.8 2.8 1.6 4.5 0 0.4-0.1 0.8 0 1.2 0.4 2.2-0.4 3.9-2.3 5.1q-0.2 0.1-0.5 0.3c0.9 0.9 1.9 1.3 3.1 1.3 1 0 1.4-0.4 1.6-1.4 0-0.2 0-0.4 0.1-0.5 0.7-0.5 0.4-1.2 0.1-1.8-0.2-0.4-0.4-0.9 0-1.3 0.4-0.3 1-0.3 1.6 0.1 1.3 1 1.6 2.3 1.6 3.9q-0.1 1 0 2.1c0.1 2.6-1.1 4.6-3.1 6.2-1.1 0.8-2.3 1.4-3.6 1.4-0.4 0-0.7 0.1-1.1 0.2 0 0.9-0.1 1.8 0 2.7 0.3 3.7-3 5.8-5.9 5.7q-2.4-0.1-4.1-1.8c-0.2-0.3-0.5-0.5-0.9-0.8 0 0.4-0.1 0.7-0.1 0.9q0.6 3.3-2.2 4.9-3.7 2.2-7.5-0.7-1.6-1.2-2.5-3c-0.5-0.9-1-2-1.3-3-1-3.1-1.8-6.2-2.7-9.3-0.4-1.2-0.8-2.5-1.3-3.9-0.1 0.2-0.2 0.3-0.2 0.3 0.5 2.6-0.7 4.3-2.5 5.8-0.5 0.4-1.1 0.8-1.7 1.3 0.9 1.6 1.9 3.3 2.8 4.9 0.8 1.2 1.6 2.4 2.4 3.6 1.7 2.6 2.5 5.4 2.3 8.6-0.1 1.6 0 3.2-0.4 4.8-0.9 3.5-3.6 6.1-7.2 6.5-3.7 0.4-7.2-1.5-8.3-5.4-0.3-1.1-0.2-2.3-0.3-3.4 0-0.1 0.1-0.3 0-0.4-0.1-1.5-0.1-3 0.4-4.5-0.5 0-0.9 0-1.3 0-3.1 0.1-6.1-2.4-6.6-5.5-0.2-0.9-0.2-1.9-0.2-2.9 0-0.2 0-0.4 0-0.6-0.4-3.9 1.3-6.8 4.1-9.2 2.2-2 5.1-2.8 8-3.3q1.8-0.2 3.5-0.8c0.8-0.3 1.6-0.8 1.9-1.7-1.2-1.3-1.2-1.3 0-2.6-0.6-0.2-1.1-0.3-1.4 0.5-0.1 0.5-0.5 0.7-1 0.6-0.3-0.1-0.7-0.4-0.9-0.8-0.3-0.5-0.2-1 0.3-2.2-0.8-1.8-0.3-3.3 1.5-4.1 2.3-1.1 4.5-0.8 6.4 0.9 1 0.9 1.9 2 2.5 3.2 0.7 1.5 1.4 3.1 2.1 4.7q0.2 0.4 0.4 0.9zm-9.8-2.5c1.2 1.3 1.1 2.2-0.4 3.1-0.3 0.2-0.6 0.3-0.8 0.4-1.7 0.9-3.6 1.1-5.4 1.4-3.6 0.6-6.5 2.2-8.6 5.3-1.5 2.2-2.1 4.5-1.3 7.1 1.1 3.2 4 4.9 7.3 4.1 1.7-0.5 2.7-1.5 3.1-3.1 0.2-0.9 0.3-1.8-0.2-2.6q-0.3 0.1-0.4 0.2c-1.2 0.9-2.4 0.4-2.6-1 0-0.6 0.1-1.3 0.3-1.8 0.9-2.1 2.4-3.5 4.2-4.7 0.2-0.1 0.4-0.1 0.7-0.2 0.1 0.4 0.2 0.7 0.2 1.1 0 1.6 0.4 3.2 1 4.7q1.1 2.5 2.2 5c0.7 1.4 1.3 2.8 1.5 4.4 0.1 1.1 0 2.2-0.7 3.1-0.6 0.7-1.3 1-2.1 0.8-1-0.2-1.4-1-1.6-1.8-0.1-0.8 0.2-1.5 0.9-1.9q0.3-0.2 0.6-0.4c-0.7-1-1.6-1.3-2.8-0.9-3.1 1-4.8 4.1-4.1 7.5 0.3 1.2 0.7 2.4 1.6 3.4 3.4 3.3 8.9 2.7 11.4-1.3 2-3.2 2.1-6.5 0.6-9.8-0.6-1.6-1.6-3-2.5-4.4-1.3-2.2-2.7-4.2-3.9-6.3-0.4-0.9-0.6-2-0.9-3q-0.2-0.9 0.7-1.4c0.8-0.5 1.5-1 2.2-1.5 0.9-0.7 1.6-1.5 1.9-2.6 0.4-1.1 0-2.3-0.8-2.9-0.4-0.3-0.8-0.4-1.3 0zm29.9 9.9c-1.4 1.7-2.5 1.8-4.1 0.4-0.7-0.6-1.2-1.4-1.8-2.2-0.5-0.8-0.9-1.7-1.3-2.5-0.8-1.3-1.7-2.4-2.8-3.4-3.3-3-8-1.9-9.9 2.1 0 0.1-0.1 0.1-0.4 0.3q-0.3-0.7-0.6-1.3c-0.9-2-1.7-4-2.6-6-0.8-1.6-1.9-3-3.6-3.8-1.5-0.8-3.5-0.5-4.8 0.6-0.6 0.6-0.7 0.9-0.5 1.7 1.3-1.3 2.6-1.4 3.9-0.1 0.9 1 1.7 2.1 2.3 3.3 0.7 1.7 1.2 3.4 1.8 5.1 0.9 3.2 1.8 6.5 2.8 9.7 0.6 1.9 1.6 3.6 3.1 5 2 1.9 4.9 2.1 7.1 0.5 0.7-0.5 1.3-1.2 1.5-2.2 0.2-0.9-0.1-1.7-0.9-2.3-1.2 1-2.3 1-3.5-0.1q-0.1-0.1-0.2-0.3c-1.9-2-3.1-4.3-4.1-6.9-0.8-1.7 0.9-4 2.5-4.1 0.9-0.1 1.7-0.1 2.2 0.6 0.7 0.7 1.4 1.5 1.9 2.4 0.9 1.9 1.7 3.8 2.6 5.6 0.5 1.2 1.4 2.2 2.4 3.1 2 1.9 5.3 1.4 7-0.3 0.8-0.9 1.2-2 1.1-3.2 0-0.7-0.3-1.3-1.1-1.7zm0-12.2q0 0.1 0.1 0.2c0.2 0 0.4 0.1 0.6 0 1.8-0.4 3.2-2.2 3.1-4.1-0.1-2.6-2.7-4.6-5-3.4-0.8 0.3-1.6 0.7-2.2 1.2-4.1 3.4-5.2 11.6 2.1 15.4 3.3 1.7 6.9 0.6 8.8-2.2 1-1.4 1.6-2.9 1.1-4.7-0.2-0.9-0.6-1.3-1.4-1.7q0.2 0.6 0.3 1.2c0.5 2.3-2 4.2-3.8 3.8-3.1-0.8-5.3-4-4.8-7.2 0.1-0.8 0.4-1.6 1.1-2.2 0.4-0.4 0.9-0.5 1.5-0.3 0.5 0.3 0.7 0.8 0.7 1.3 0 1-0.4 1.7-1.2 2.2-0.3 0.2-0.7 0.4-1 0.5zm-17.5 10.4c0.2 0.6 0.4 1.1 0.7 1.6 0.9 1.6 1.8 3.1 3.2 4.4 0.8 0.8 1.2 0.7 2-0.1q0.2-0.2 0.5-0.4c-0.6-1.5-1.2-2.9-1.9-4.2-0.2-0.6-0.6-1.1-1.1-1.5-1.1-1.2-2.2-1.2-3.4 0.2zm-14.3 13.6c-0.6-1.5-1.3-2.9-1.8-4.4-0.5-1.5-0.8-3.1-1.2-4.6-1.3 0.6-2.5 1.9-2.7 3 0.2-0.2 0.3-0.4 0.4-0.5 0.4-0.6 0.7-0.7 1.2-0.3 0.3 0.2 0.6 0.6 0.7 1 0.2 0.6 0.2 1.3 0.2 1.9q0 0.9 0 1.8c0 0.6 0 1.2 0 1.6 1.2 0.2 2.2 0.3 3.2 0.5zm-0.4 2.7q0.7 0.9 1.3 1.8 1.4-0.9-0.1-2.8c-0.4 0.3-0.9 0.7-1.2 1zm31.9-25.8c0.2 0.5 0.4 0.8 0.5 1.2 0.7-0.3 1.1-0.6 1.2-1.3-0.5 0-1 0.1-1.7 0.1zm-3 11.1q-0.1 0.1-0.2 0.2 0.5 0.3 1 0.6 0.1-0.1 0.1-0.2-0.5-0.3-0.9-0.6z"/>
			<path id="&lt;Compound Path&gt;" fill-rule="evenodd" class="s0" d="m182.7 209.8c-0.5-1.1-1-2.1-1.5-3.2-0.9-2-0.7-4.1-0.5-6.2 0.1-0.4 0.4-0.9 0.7-1.4 0.2-0.3 0.5-0.5 0.8-0.7 0.7-0.4 1.4-0.3 1.8 0.1 0.5 0.6 0.2 1.1-0.2 1.5 0.2 0.4 0.4 0.8 0.4 1.2-0.1 0.3-0.5 0.6-0.8 1 0.7 1.4 1.8 2.5 2.9 3.6 1.6 1.4 3.2 2.8 4.5 4.3 2 2.3 2.8 5 2.7 8 0 1 0 2-0.2 3-0.6 3.8-3.2 6.8-7.4 7.5-1.8 0.4-3.5 0.2-5.1-0.6-2.4-1.1-3.3-3-3.4-5.5 0-0.3 0.1-0.6 0.1-0.9-0.2-1.3 0-2.6 1.1-3.6-3.4-0.5-5.3-2.8-6.6-5.5-0.9-1.8-1.5-3.6-2.2-5.4-0.6-1.3-1.3-2.4-2.6-3.1-0.6-0.4-1.2-0.5-1.9 0.2 0.3 0.1 0.5 0.2 0.6 0.3 0.3 0.2 0.6 0.4 0.6 0.6 0.1 0.2-0.2 0.5-0.4 0.7-0.2 0.2-0.4 0.2-0.7 0.4 0.8 0.2 1.5 0.4 1.1 1.3 0.3 0.2 0.5 0.4 0.7 0.5 1.6 1 2.2 2.4 2.2 4.1q0.1 1 0 1.9c-0.1 1.9-1 3.2-2.6 4.1-0.3 0.2-0.7 0.3-1.1 0.4 1 1.4 2.3 2.2 3.9 2.2 0.9 0 1.5-0.5 2-1.4-0.2-0.6-0.9-1.3 0-1.9-0.1-0.2-0.1-0.3-0.2-0.5-0.2-0.4-0.4-0.9 0.1-1.2 0.4-0.3 0.9-0.3 1.3 0 0.8 0.4 1.4 1.1 1.5 1.9 0.4 2.3 0.6 4.5-0.5 6.6-1.6 3.1-4.9 4.9-8.6 4-0.4-0.1-0.8-0.2-1.2-0.3 0.1 1.4 0.3 2.6 0.1 3.8-0.3 2.1-1.5 3.7-3.2 4.8-3.2 2-6.4 1.7-9.1-0.8-0.9-0.9-1.6-1.9-2.3-3-1-1.5-1.8-3.2-2.8-4.7-0.3-0.6-0.8-1.2-1.2-1.8-0.8 2.2 0.1 7.4 1.4 8.4q0.4-0.2 0.9-0.5c0.9 0.4 1 1.2 0.9 1.9 0 0.4-0.1 0.7 0 1.1 0.1 1.3-0.4 2.2-1.6 2.7-2.4 0.9-5.3-0.2-6.5-2.5-1.1-2.1-1.4-4.5-1.5-6.9 0-4.2 0.4-8.4 0.9-12.6 0.2-1.6 0.2-3.2-0.3-4.8-0.3-0.7-0.7-1.3-1.1-1.9-0.3-0.5-0.8-0.7-1.4-0.5-0.5 0.1-0.9 0.5-1 1.1q-0.1 0.1 0 0.1c0 0.4-0.1 0.9-0.6 0.8-0.5 0-0.8-0.4-0.8-0.9 0-0.8 0-1.5 0-2.3 0.2-1.6 2-2.9 3.7-2.7q1.9 0.3 3.2 1.6c1.5 1.4 2.4 3.2 2.8 5.2 0 0.3 0.1 0.5 0.2 0.9 0.4-0.6 0.8-1.1 1.2-1.5 1-1.1 2.2-1.7 3.8-1.5 1.8 0.1 2.9 1.1 3.7 2.6 0.2 0.4 0.4 0.9 0.5 1.4 0.3 3 0.6 6-1.5 8.6-0.3 0.2-0.5 0.5-0.7 0.9 1.5 1.8 3.1 3.4 5.2 4.4 1 0.5 2 0.8 3.1 0.6 1.2-0.1 1.7-1 1.4-2.2-0.1-0.3 0-0.8 0.1-1.3-0.4-0.3-0.9-0.7-1.3-1.2-1.2-1.3-2.1-2.8-2.3-4.6-0.5-2.9-0.5-5.7 0.8-8.5 1-2 2.6-3.6 4.7-4.5 0.1 0 0.2-0.1 0.2-0.1-0.3-0.8-0.8-1.6-0.9-2.5-0.2-0.9-0.1-1.8 0-2.7 0.2-1.8 1.4-2.9 2.9-3.6 3-1.3 5.6-0.4 7.9 1.6 1.7 1.4 2.7 3.3 3.6 5.3 0.4 0.7 0.7 1.5 1.2 2.2 0.7 1.1 1.6 1.9 2.9 2.4 0.5 0.1 1 0.2 1.5-0.3zm-38 14.7c0.5 0.5 0.8 0.7 1 1q1.6 2.4 3.1 4.8c0.8 1.3 1.5 2.6 2.5 3.8 1.1 1.5 2.6 2.6 4.4 3 2.8 0.4 6.7-1.5 7.6-4.7 0.1-0.5 0.2-1 0.2-1.5-0.1-0.8-0.6-1.3-1.4-1.5q0 0.2 0.1 0.5c0 1.5-0.9 2.4-2.4 2.5-0.7 0-1.4-0.1-2-0.3-1.5-0.4-2.8-1.2-3.9-2.2-1.3-1.3-2.5-2.6-3.8-3.9-0.2-0.2-0.2-0.4-0.3-0.6 0.1-0.1 0.2-0.2 0.3-0.3 3.5-2 4.3-6.7 2.3-9.7-1.2-1.7-3.1-2.2-4.9-1.3-1.4 0.8-2.2 2-2.7 3.4q-0.2 0.6-0.4 1.2-0.1 0-0.2-0.1c-0.1-0.4-0.1-0.9-0.1-1.3-0.1-2-0.6-3.8-1.7-5.4-0.9-1.4-2.1-2.4-3.9-2.8-1.5-0.2-2.8 0.7-3 2.3 0.1-0.2 0.2-0.4 0.3-0.5 0.9-1.4 2.3-1.5 3.4-0.2 0.4 0.6 0.8 1.2 1 1.9 0.3 1.2 0.7 2.6 0.6 3.8-0.1 3-0.5 5.9-0.7 8.8q-0.2 3.6-0.1 7.2c0.1 1.8 0.6 3.4 1.4 4.9 1 1.7 3.5 2.6 5.3 1.9 1.1-0.4 1.5-1.1 1.2-2.3-1.4 0.2-1.9 0-2.5-1.4-0.2-0.6-0.4-1.3-0.5-1.9-0.2-2.7-0.3-5.4-0.4-8.1 0-0.2 0.1-0.4 0.2-1zm21-17.5c-0.3-0.1-0.4-0.2-0.6-0.3-1.2-0.8-1.3-2.1-0.3-3.1 0.7-0.7 1.7-0.8 2.7-0.4 1.2 0.7 2.1 1.7 2.7 2.9q0.7 1.6 1.4 3.3c0.7 1.9 1.5 3.8 2.7 5.4 0.7 0.9 1.6 1.6 2.6 2 3.1 1 6.5-0.4 7.9-3.4 0.2-0.2 0.3-0.5 0.5-0.8 0.4 0.3 0.7 0.5 0.9 0.8 0.9 1 1.4 2.1 1.6 3.4 0.6 3.7-2.1 6.8-5.7 6.5-2-0.1-2.8-0.9-2.9-3-0.7 0.3-0.9 0.8-1.1 1.5-0.5 1.9 0.4 4.1 2.1 5.1 2.8 1.8 7.2 1.4 9.7-0.8 3.6-3.2 3.6-8.2 1.9-11.5-0.7-1.3-1.7-2.5-2.7-3.5-1.3-1.4-2.8-2.5-4.1-3.8-1.2-1.2-2.2-2.6-2.6-4.3-0.1-0.7 0-1.4 0.6-1.8 0.1-0.1 0.3-0.2 0.5-0.4-0.9-0.2-1.4 0.2-1.6 0.7-0.4 0.6-0.6 1.2-0.7 1.9-0.1 1 0.1 2 0.6 3 0.6 1.3 1.3 2.6 2 3.9 0.5 0.7 0.5 1.1-0.2 1.7-0.9 0.9-2.1 1-3.3 0.4-1.3-0.7-2.2-1.8-2.9-3.1-0.7-1.2-1.3-2.5-2-3.8-1-1.9-2.5-3.5-4.6-4.4-1.7-0.9-3.4-0.8-5 0-1.2 0.6-2.2 1.5-2.6 2.9-0.4 1.6 0.8 3.2 2.5 3zm-0.7 10.7c0.3 0 0.5 0.1 0.8 0 1.3-0.3 2.2-1.2 2.7-2.4 0.6-1.6 0.3-3.1-0.8-4.3-1.1-1.2-2.3-1.5-4.2-0.8-3.4 1.4-5.4 5.4-5.1 9.1 0.3 3.5 2.3 6 5.4 7.6 2.7 1.3 5.5 0.9 7.7-1.2 1.6-1.4 2.5-3.1 2.2-5.3 0-0.8-0.3-1.5-1.2-2.1 0.1 0.7 0.1 1 0.1 1.4 0.2 1.9-1.9 4.2-4.3 3.4-2.5-0.9-4.5-3.5-4.5-6.1 0.1-0.8 0.3-1.7 0.7-2.5 0.4-1 1.3-1.3 2-1 0.7 0.3 0.9 1.3 0.5 2.3-0.3 1-1.1 1.4-2 1.9zm15.1 0.1c0 0.3 0 0.5 0 0.6-0.3 1.4 0.1 1.9 1.4 2.3 2.2 0.6 4.7-0.9 5.4-2.8 0.2-0.4 0.2-0.7 0.2-1.1-0.2-1.1-0.6-2.2-1.6-3-1.1 2.2-3 3.5-5.4 4zm-15-3.3q0.1 0.1 0.2 0.2 0.4-0.2 0.8-0.5-0.1-0.1-0.2-0.3-0.4 0.3-0.8 0.6z"/>
			<path id="&lt;Compound Path&gt;" fill-rule="evenodd" class="s0" d="m128.8 141.6c-0.4 0.3-0.8 0.6-1.2 1.1-0.1-0.6 0.2-0.7 0.4-1 0.4-0.6 1.1-1 0.7-2-0.1-0.2 0.2-0.7 0.4-1 0.5-1 0.5-2 0.3-3.2-0.8-3.4-1.4-6.9-2.1-10.4-0.2-1-0.6-2.1-1-3.1-0.1-0.4-0.3-0.8-0.3-1.2 1.2 1.3 1.8 3 2.1 4.8 0.6 3.9 1.2 7.7 2.4 11.5 0.4 1.4 1 2.7 1.6 4.1 0.5 1.2 1.6 1.8 2.8 2 1.6 0.4 3.3 0.4 4.9 0.1 0.4-0.1 0.7-0.3 1.1-0.5 2.3-1.2 4.7-2.6 7-3.7q4.6-2.2 9.6-2.9c3.7-0.5 7.2 0 10.5 1.9 0.4 0.3 0.9 0.4 1.4 0.4 0.7-0.1 1.5-0.2 2.3-0.3 0.2-0.4 0.3-0.7 0.5-1.4 0.1 0.5 0.2 0.7 0.3 0.9 0.6 3.1 2.4 5.4 5.3 6.7 0.6 0.3 1 0.6 1.1 1.2 0.6 1.7 1 3.4 1.6 5.1 0.2 0.6 0 1-0.3 1.3-0.7 0.7-1.4 1.2-2.4 1.3-0.7 0.1-1.4 0.3-2.1 0.6-0.3 0.1-0.6 0.4-1 0.7 0.2 0.1 0.3 0.3 0.4 0.3 1.5 0 3 0.1 4.6-0.1 1.9-0.1 3.2-1.3 3.4-3.2 0.2-1.4 0-2.8 0-4.3q0-0.5 0-1.1 0.1 0 0.3-0.1c0.1 0.3 0.3 0.5 0.3 0.8 0 1.5 0.1 3-0.1 4.5-0.3 2.5-1.8 3.8-4.4 4-0.8 0.1-1.6 0.3-2.4 0.6-0.5 0.1-1.1 0.4-1.3 1.1 0.1 0.1 0.2 0.2 0.3 0.2 2 0.1 3.9 0 5.8-0.5 2.5-0.6 4.4-2.7 4.6-5.4 0.1-1.1 0-2.2 0-3.3 0-0.6-0.1-1.2 0-1.8 0.8 1.1 0.7 2.4 0.7 3.6 0 1.2-0.3 2.4-0.4 3.5 1.8-0.7 2.6-1.9 2.5-3.8-0.1-2.2-0.4-4.5-0.6-6.7-0.1-0.9-0.5-1.7-1.1-2.3-0.9-1.1-1.9-2.1-2.9-3q-3-2.6-5.2-5.8c-1.7-2.4-3.9-3-6.6-2.7-2.3 0.4-4.6 0.7-6.9 1-2.1 0.3-4.2 0.6-6.3 0.8-0.2 0.1-0.5 0.2-0.8 0.2q0 0-0.1-0.1c1.1-0.6 2.4-0.9 3.6-1.1 1.3-0.1 2.3-0.6 3.3-1.4 4-3.2 8.2-6.4 12.3-9.6 0 0 0.1-0.1 0.1-0.2q-0.3-0.3-0.8-0.6c0.2-0.1 0.3-0.3 0.3-0.3 2.4 0.8 4.2-0.2 5.4-2.1 1.1-1.7 2.1-3.5 3.1-5.3q0.2-0.4 0.4-0.8c0.9-1.6 2.3-2.3 4.1-2.4 1.3-0.1 2.7-0.5 4-0.7 0.3-0.1 0.6-0.1 0.9-0.2 1-0.3 1.9-0.7 2.9-1.1 0.5-0.2 0.9-0.6 0.9-1.4-2.5-0.2-4.9 0.3-7.6 0.4 0.5 0.7 0.9 1.2 1.3 1.7-0.3 0.4-0.6 0.3-0.9 0.2-0.6-0.3-1.1-0.6-1.5-1-0.5-0.6-1.1-0.8-1.8-0.6-0.3 0.1-0.7 0.1-1 0.1-0.2 0.7 0.3 1.4-0.2 2.1-0.2-0.7-0.3-1.3-0.5-1.9-0.2-0.5-0.5-1.1-0.7-1.6q0.1-0.1 0.2-0.2c0.3 0.4 0.6 0.7 0.9 1.2q0.9-0.2 2-0.3c-0.3-2.2-2-1.9-3.6-1.8 0.2-0.3 0.3-0.4 0.4-0.5 0.2 0 0.3-0.1 0.5-0.1 0-0.4 0-0.9 0.2-1.3 0.2-0.3 0.7-0.4 1.2-0.7-0.2-0.8-0.5-1.6-0.7-2.5q-0.1 0-0.3 0c-0.4 0.9-0.8 1.7-1.2 2.6q-0.5 1.1-1 2.3-0.3 0.9-0.4 1.8c-0.3 2-0.6 4-1.8 5.6-0.5 0.7-0.9 1.3-1.9 1.4 0.6-0.7 1.2-1.3 1.6-2 0.4-0.7 0.7-1.6 1-2.4 0.3-0.8 0.4-1.7 0.6-2.6-0.4 0.1-0.6 0.2-1.1 0.3 0.2-0.4 0.3-0.6 0.4-0.7 1-1.1 1.7-2.4 2.1-3.8 0.2-0.6 0.5-1.1 0.7-1.7 0.5-0.9 0.8-1.8 0.7-2.8 0-0.8-0.3-1.4-1.2-1.8-1.2 1.7-2.4 3.4-3.5 5.1-0.4 0.7-0.8 1.3-1.5 1.8-1.1 0.9-2.1 1.9-2.8 3.2-0.1 0.1-0.3 0.2-0.5 0.4-0.3-0.5 0-0.9 0.2-1.2 0.6-0.8 1.3-1.6 2-2.3 1-0.9 2-1.8 2.6-3 0.6-1 1.4-1.9 2.2-3-1.2-0.1-2.2 0.1-3.1 0.8-0.9 0.7-1.9 1.3-2.9 1.8-1.2 0.7-2 1.6-2.4 3-0.9 2.9-1.6 5.9-2.1 9-0.3 1.3-0.8 2.4-2 3-1.1 0.6-2.1 1.3-3.1 1.9-2.3 1.2-4.5 2.7-6.2 4.7-0.2 0.2-0.5 0.4-0.8 0.4q0.7-0.8 1.4-1.6c0.3-0.3 0.5-0.7 0.7-1.1q0 0 0 0 0.6-0.3 1.2-0.7 0 0 0.1 0c1.9-1.3 3.9-2.5 5.9-3.7 1-0.6 1.6-1.4 2-2.5 0.2-0.9 0.4-1.9 0.7-2.9 0.6-2.5 1.2-5 1.9-7.6 0.3-1 1.1-1.6 2-2.1 1.2-0.8 2.5-1.7 3.8-2.4 0.4-0.3 0.9-0.4 1.3-0.5 0.5-0.1 1-0.2 1.6-0.4-0.5-0.3-0.9-0.6-1.3-0.7-0.5-0.1-0.8-0.4-0.9-0.8q-2-5.5-4.1-11c-0.2-0.6 0-1 0.4-1.5 0.9-0.7 1.9-1.2 3.1-1.1 0.9 0 1.5 0.4 1.8 1.3 1 2.9 2.1 5.8 3.1 8.7q0.9 2.6 1.9 5.3c1.8-0.1 2.5 1.1 3 2.5q0.1 0.4 0.2 0.7c0.1 0.8 0.5 1.2 1.4 1.4 1 0.1 1.9 0.4 2.9 0.7 1 0.3 1.2 0.6 1 1.8 0.3 0 0.6 0.1 0.9 0.2q1.3 0.6 0.3 1.7c-0.2 0.2-0.4 0.4-0.8 0.7 0.6 0 1 0 1.3-0.1 1.2 0 1.5 0.5 1.1 1.6 0 0.1-0.1 0.2-0.2 0.4q0.4 0.2 0.8 0.5c1.5 1.1 3.1 2.1 4.7 3.2 0.6 0.5 1.2 1.1 1.7 1.7 0.6 0.8 0.6 1.7 0.1 2.4-0.6 0.8-1.4 1.1-2.4 0.7-0.8-0.2-1.5-0.6-2.2-1.1-1.7-1.4-3.4-2.8-5.1-4.3-0.4-0.3-0.8-0.5-1.2-0.8-0.4-0.4-0.9-0.4-1.4-0.3-1.2 0.3-2.4 0.6-3.6 0.7-2.1 0-3.4 1-4.3 2.8-0.6 1.2-1.1 2.4-1.8 3.5q-1.1 1.6-2.4 3.1c-0.4 0.5-1.1 1-1.7 1.1-1.3 0.3-2.2 1.1-3.2 1.8q-6 4.5-12.1 9.1c-0.1 0.1-0.2 0.2-0.2 0.5q2.4-0.3 4.8-0.6c1.5-0.2 3-0.5 4.5-0.6 2.2 0 4.1 0.9 5.3 2.8 1.7 2.6 3.9 4.7 6.1 6.8q0.3 0.3 0.6 0.6c2 1.6 3 3.6 3 6.2 0 1.6 0.2 3.2 0.4 4.8q0.1 2.1-1.5 3.5c-0.5 0.4-1 0.7-1.6 1.1-0.6 0.5-1.3 1-1.9 1.6-1 1-2.3 1.4-3.7 1.6-1.4 0.2-2.9 0.2-4.4 0.3q-0.2 0.1-0.3 0c-0.5 0-1 0-1.1-0.5 0-0.4 0.2-0.8 0.5-1.1 0.1-0.2 0.4-0.4 0.7-0.6-0.6-0.1-1-0.1-1.4-0.2-0.8-0.2-1-0.9-0.4-1.5 0.4-0.3 0.8-0.5 1.3-0.6q0.9-0.3 1.9-0.4c0.8-0.1 1.4-0.5 1.9-1 0.3-0.4 0.4-0.8 0.3-1.2-0.5-1.6-0.9-3.2-1.4-4.7-0.1-0.4-0.5-0.8-0.8-1q-3.9-1.9-5.5-5.9c-0.1-0.1-0.1-0.2-0.3-0.3q-1.2 0.1-2.5 0.2c0.5 1 1 1.8 1.3 2.8 0.7 2.5 0.7 5.1-0.1 7.6-1.3 3.8-2.7 7.5-4.6 10.9-1.7 3.1-3.4 6.3-5 9.4q-0.6 1.4-1.1 2.9c-0.2 0.6-0.2 1.2-0.2 1.9 0 1 0.5 1.4 1.5 1.3 1 0 1.9-0.1 2.9-0.2 2.2-0.1 4.3 0.2 6.4 0.9q2.8 0.9 5.7 0.8c2.1 0 4.1 0.2 6 0.8 0.9 0.3 1.7 0.7 2.5 1.1q0.3 0.2 0.6 0.4c0.4 0.5 0.9 0.9 0.7 1.5-0.1 0.7-0.7 0.8-1.3 1-0.2 0-0.4 0-0.7 0.1-0.2 1.8-1.7 1.3-2.9 1.4-0.3 1.1-1.2 1.3-2.2 1.4-1 0-2 0-3.1 0-0.6 1.2-1 1.4-2.5 1.3-2-0.2-4.1-0.5-6.1-0.6-2.9-0.1-5.8 0.4-8.6 0.8-2.3 0.3-4.5 0.8-6.8 0.4-1.6-0.3-3.1-0.8-4.5-1.8-1.6-1.1-2-2.8-1.9-4.6 0-1.2 0.2-2.4 0.6-3.6 0.6-1.9 1.4-3.7 2.2-5.5 0.9-2.2 1.4-4.5 1.4-7q-0.3 0.4-0.6 0.8c-2.5 3.7-5.5 6.9-9.1 9.4-0.3 0.2-0.4 0.5-0.5 0.7-0.2 0.3-0.4 0.6-0.7 0.7-0.6 0.4-1.3 0.8-1.9 1.1q-0.6 0.4-1.1 0.7-0.9 0.3-1.9 0.6-0.7 0.2-1.3 0.4-0.1-0.1-0.1-0.2 1-0.5 2.1-0.9c0.7-0.3 1.4-0.7 2.1-1.1q-0.4 0-0.8 0 0 0 0-0.1c0.7-0.4 1.4-0.7 2.1-1.1 4.5-2.7 7.9-6.5 10.9-10.8 0.8-1.2 1.4-2.4 1.5-3.9 0.2-1.2 0.6-2.3 0.9-3.5 0.1-0.5 0.4-1 0.2-1.7-0.1-0.5 0.4-1 0.6-1.6 0.2-0.4 0.7-0.8 0.3-1.4 0-0.2 0.2-0.5 0.3-0.7q0.6-0.8 1.3-1.7 0.3-0.4 0.7-0.7 1-0.8 1.9-1.6c0.1-0.1 0.2-0.1 0.5-0.1-0.9 0.9-1.7 1.6-2.5 2.4q0.1 0 0.1 0.1 0.4-0.2 0.7-0.4 0.1 0.1 0.1 0.1c-0.7 0.9-1.4 1.9-2.2 3 0.3-0.1 0.4-0.1 0.7-0.1-0.2 0.3-0.2 0.5-0.3 0.6-1.8 2.8-2.7 5.8-3 9-0.3 2.8-0.5 5.6-1.5 8.3-0.6 1.2-1.1 2.4-1.7 3.7-0.8 2.1-1.5 4.2-1.5 6.5 0.1 1.8 0.8 3.1 2.3 4.1 2 1.3 4.3 1.6 6.6 1.4 2.2-0.2 4.4-0.6 6.6-0.9q4.8-0.7 9.6 0c1 0.1 2.1 0.1 3.1 0.2 0.4 0 0.9-0.2 0.9-0.6 0.1-0.3-0.2-0.7-0.5-0.9q-1.2-0.5-2.5-0.9c-0.5-0.2-1.1-0.2-1.8-0.3 0.5-0.5 1-0.4 1.5-0.4 1.2 0.1 2.3 0.4 3.3 1.2 0.4 0.2 0.8 0.4 1.2 0.4q1.4 0.2 2.8 0.2c0.4 0 0.8-0.2 1.3-0.3-0.1-0.9-0.7-1.3-1.3-1.5-1.1-0.3-2.2-0.5-3.3-0.8-0.4-0.1-0.9-0.1-1.6-0.2 0.4-0.2 0.5-0.3 0.7-0.3 1.9 0 3.8 0.1 5.4 1.4 0.7 0.5 2 0.4 3.1-0.1 0-0.7-0.5-1-1-1.2-1.3-0.6-2.6-0.8-4-1-0.4 0-0.7 0-1.1-0.3 0.3-0.1 0.5-0.2 0.8-0.2 1.9 0 3.7 0.1 5.3 1.3 0.7 0.6 1.4 0.2 2.1-0.1 0-0.7-0.4-0.9-0.8-1.2-1.2-0.9-2.7-1.4-4.2-1.6q-2-0.2-4.1-0.3c-2-0.1-4-0.2-6-0.9-2.8-0.9-5.7-1.2-8.7-0.6-1.4 0.3-2.5-0.4-2.5-2.2 0-1.1 0.3-2.2 0.7-3.1 1.3-2.8 2.7-5.4 4.1-8.1 2.3-4.6 4.7-9.1 6.2-14 0.7-2.3 0.8-4.6 0.2-6.9-0.5-2-1.7-3.3-3.5-4.2-2.8-1.3-5.8-1.7-8.9-1.3-4.9 0.6-9.4 2.5-13.7 4.9-8 4.4-15.1 10-22 15.8-1.3 1.1-2.5 2.4-3.5 3.9-0.1 0.2-0.3 0.3-0.6 0.4 0-0.2 0-0.5 0.1-0.6 0.8-1.6 2-2.9 3.4-4 1-0.9 0.9-2 0.9-3.1 0-0.3-0.1-0.7 0-0.9 0.6-1.7 0.6-3.5 1.8-4.9 0.2-0.2 0.2-0.4 0.3-0.6q0.7-0.7 1.5-1.5c0.2 0.1 0.3 0.1 0.7 0.2-0.9 1-1.7 1.9-2.6 2.9 0.4-0.1 0.5-0.1 0.9-0.2-0.6 1-1.1 1.9-1.6 2.8 0.2 0.1 0.4 0.2 0.6 0.2-0.4 1.2-1 2.3-1 3.6 5.2-3.8 10.3-7.7 15.5-11.6-0.8 0-1.4 0-2.1 0-2.7 0-4.6-1.1-5.6-3.6-0.1-0.4-0.3-0.7-0.5-1.2-0.4 0.6-0.7 1-1 1.5q-0.3 0.4-0.6 0.9zm60.2-39.7q1.5 0.8 3 1.7c-0.2-0.7-1.2-0.7-1.4-1.6 0.9-0.4 1.4 0.2 2.1 0.5 0.7 0.3 1.3 0.8 2.2 0.9-0.2-0.2-0.2-0.3-0.3-0.3q-2.8-1.3-5.7-2.6c-0.4-0.1-0.8-0.2-1.2-0.2-0.2 0-0.5 0.2-0.6 0.4 0 0.1 0.1 0.5 0.3 0.6 0.5 0.2 1.1 0.4 1.6 0.6zm-4.3-8.9c1.1-0.4 1.5-0.3 2 0.6 0.3 0.4 0.4 0.8 0.5 1.3 0 0.3 0 0.7 0.1 1q0.5 1.8 1.1 3.5c0.1 0.4 0.3 0.6 0.7 0.4q0-0.2 0-0.5c-0.2-2.1-0.9-4.1-1.6-6.1-1.7-4.5-3.3-9-5-13.5-0.4-0.9-0.5-1-1.5-1-0.3 0-0.6 0.1-1 0.1 1.3 3.6 2.6 7 3.8 10.4q0.1 0 0.2-0.1-1.6-4.6-3.2-9.3 0.1 0 0.2-0.1c0.1 0.2 0.3 0.4 0.3 0.6q1.4 3.8 2.8 7.6c0.5 1.6 0.6 3-0.7 4.3 0.4 0.3 0.8 0.5 1.3 0.8zm-2.3-1.2c1.3-0.5 1.4-0.8 1.2-1.8q-0.2-0.8-0.4-1.5-1.7-4.5-3.4-8.9c-0.1-0.2-0.2-0.3-0.3-0.5-1.2 0.7-1.3 0.9-0.9 2q0.9 2.5 1.7 4.9c0.7 1.9 1.4 3.8 2.1 5.8zm13.9 14.9q-0.1 0.1-0.2 0.3c2.3 1.8 4.6 3.7 7 5.6 0.4 0.3 0.9 0.4 1.4 0.5 0.6 0.2 1.2-0.1 1.5-0.6 0.4-0.5 0.4-1.1-0.1-1.7-0.3-0.3-0.6-0.7-1-1q-2.9-2-5.8-3.9c-0.1-0.1-0.3-0.1-0.7-0.2 1.1 0.8 1.9 1.3 2.7 2 0.4 0.3 0.9 0.7 1.2 1.2 0.1 0.2 0.2 0.8 0.1 1-0.2 0.2-0.7 0.3-1.1 0.3-0.4-0.1-0.8-0.4-1.1-0.6-0.7-0.5-1.4-1.1-2.1-1.6q-0.9-0.6-1.8-1.3zm-4.6-6.9c0-0.2 0-0.4 0-0.5-0.4-1.1-0.7-2.2-1.1-3.3-0.2-0.5-0.5-0.9-0.8-1.4-0.3-0.4-0.7-0.5-1.2-0.3 0.3 1.3 0.6 2.5 0.9 3.7 0.3 1.1 1.2 1.8 2.2 1.8zm-1.8 0.2c0.7 0.7 1.5 1.2 2.6 1 1.2-0.2 2.6 0 3.7-1.3-1.3-0.6-2.6-0.8-4-1.1 0 0.7 0.4 1.3-0.3 1.8-0.8 0.5-1.3-0.3-2-0.4zm3.2 1.7c0.7 0.4 1.2 0.6 1.8 0.9 1 0.4 1.9 0.1 2.6-0.9-1.2-0.7-1.8-0.8-4.4 0zm-2.1 3.5q0.1-0.1 0.2-0.2c-0.8-1.7-0.8-1.7-1.8-1.9 0.6 0.8 1.1 1.4 1.6 2.1zm-61.7 34.3q0.1 0 0.2 0.1 0.2-0.5 0.4-1.1-0.1 0-0.2 0-0.2 0.5-0.4 1z"/>
			<path id="&lt;Compound Path&gt;" fill-rule="evenodd" class="s0" d="m202.8 125.9c0.6-0.6 0.9-1.2 1.4-1.6 1.3-1.5 2.8-2.2 4.8-2.1 1.1 0.1 2.3-0.1 3.3 0.5 0.5 0.3 1.1 0.6 1.7 0.9q0.1-0.3 0.2-0.5c0.8-2.6 2.6-3.9 5.2-4.3 1-0.1 2.1-0.1 3.2 0 2.2 0.2 4 1.3 5.1 3.3 0.1 0.1 0.2 0.2 0.3 0.4 0.2-0.3 0.4-0.5 0.6-0.8q1.9-2.9 5.4-2.9c0.4 0 0.7 0 1.1 0 4.7-0.2 7.9 3.2 7.1 8.3-0.3 2-1.1 3.9-2.4 5.5-0.2 0.2-0.4 0.5-0.7 0.9 0.9 0 1.5 0 2.2 0 1-0.1 1.7 0.5 1.8 1.5 0.1 1-0.5 1.8-1.2 2.5-0.8 0.6-1.8 1-2.9 1-1.8 0.1-3.7 0.1-5.5-0.4-1-0.2-2-0.2-3-0.3-0.7-0.1-1.4-0.2-2.4-0.3-2.3 1.6-5.1 1.3-7.9 0.7-1.2-0.3-2.4-0.5-3.7-0.4-1.2 0.1-2.2-0.2-2.6-1.5-3.8 2.7-6.7 2.6-10.4-0.1-0.3 0.3-0.6 0.7-0.9 1-1 0.8-2.1 1.3-3.3 1.3-1.9 0.1-3.9 0.1-5.8-0.4-1.1-0.3-2.2-0.2-3.4-0.3-0.6-0.1-1.2-0.1-1.7-0.3-0.6-0.2-1-0.7-1-1.4 0-0.6 0.3-1.1 0.8-1.4 0.3-0.2 0.6-0.3 0.9-0.4q2.2-0.6 3.5-2.4c1.4-1.9 2.4-4.1 2.4-6.6 0-0.7-0.3-1.3-0.9-1.8-1 0.8-1.3 1.7-0.9 2.8 0.5 1.4 0.1 1.9-1.4 1.8-0.2 0-0.5-0.1-0.7 0-1.5 0.3-2.3-0.5-3-1.6-1.2-1.8-1.1-3.8-0.2-5.7 1.1-2.1 2.9-3.3 5.3-3.5q1.5-0.1 3 0c3.8 0.2 6.5 3 6.6 6.8 0.1 0.5 0 1.1 0 1.8zm-6.9 9.7q-0.1-0.3-0.2-0.5c0.2-0.1 0.5-0.2 0.7-0.4 0.8-0.7 1.7-1.4 2.5-2.2 2.2-2.4 3.3-5.2 3.2-8.4-0.2-2.4-1.2-4.3-3.4-5.4-3.5-1.7-8.5-0.5-9.1 4.6-0.2 1.5 0.3 2.9 1.7 3.8 0.4 0.4 0.9 0.6 1.5 0-0.2-0.3-0.3-0.5-0.4-0.8-0.4-1.4 0.4-3.1 1.7-3.5 1.7-0.5 3.1 0.4 3.2 2.3 0.2 2.6-0.7 4.9-2.3 7-1 1.4-2.2 2.3-3.9 2.8-0.3 0.1-0.6 0.2-0.8 0.4-0.7 0.4-0.7 1.2 0 1.6 0.5 0.2 1.1 0.3 1.5 0.2 1.2-0.3 2.3 0 3.4 0.3q1.1 0.3 2.3 0.5c1.4 0.2 2.7 0.2 3.9-0.6 0.6-0.4 1.2-0.9 1.5-1.5 0.2-0.4 0.1-1.1-0.1-1.7-0.1-0.4-0.6-0.6-1.1-0.3-0.6 1.5-1.1 2-2.4 2.1q-1.3 0.1-2.5 0c-0.3 0-0.6-0.2-0.9-0.3zm3.6-2.5q0.5 0 1.1 0 0.7 0 1.4-0.1c-0.1-1.1-0.1-2.2-0.2-3.3-0.9 1.2-1.6 2.2-2.4 3.3-0.8 0.7-1.6 1.4-2.5 2.2 1.2 0.2 1.8-0.1 2.1-0.9q0.3-0.6 0.5-1.2zm36.3 2.5c0.2-0.2 0.4-0.5 0.6-0.7 0.7-0.6 1.5-1.3 2.2-2q3.2-3.3 3-7.8c-0.2-3.4-2.4-5.1-4.9-5.5-3.4-0.7-6.3 1.4-6.6 4.7-0.2 1.5 0.2 2.8 1.5 3.7 0.4 0.3 0.9 0.5 1.3-0.1-0.4-1.2-0.4-1.9 0-2.7 0.5-1 1.4-1.5 2.4-1.3 1.1 0.1 1.7 0.7 1.9 1.9 0.1 0.5 0.1 1 0 1.5-0.2 1.8-0.8 3.5-1.9 5-1 1.4-2.2 2.4-3.8 2.9-0.2 0-0.5 0-0.6 0.2-0.2 0.2-0.6 0.5-0.6 0.9-0.1 0.5 0.3 0.7 0.7 0.8 0.5 0.1 1 0.2 1.4 0.1 0.8-0.2 1.4-0.1 2.1 0.1 1.3 0.3 2.6 0.6 3.9 0.7 1.2 0.1 2.3-0.2 3.2-1 0.6-0.5 1.1-1.2 0.9-2.1-0.1-0.6-0.4-0.8-1.2-0.7-0.2 0.4-0.3 0.8-0.6 1.1-0.8 1.1-3.6 1.2-4.9 0.3zm-14 0.2c0.4-0.5 0.6-0.7 0.8-0.9 0.7-0.6 1.3-1.1 1.9-1.7 2.5-2.4 3.6-5.2 3.2-8.7-0.2-1.7-1-3.1-2.4-4-1.3-0.8-2.6-1.1-4.1-1-2.8 0.2-4.9 2.3-5 5.1 0 1.3 0.4 2.5 1.5 3.3 0.5 0.4 0.9 0.6 1.4 0-0.4-0.8-0.5-1.6-0.1-2.5 0.4-1.1 1.3-1.7 2.5-1.5 1.1 0.1 1.7 0.8 1.9 2 0 0.5 0.1 0.9 0 1.3-0.2 1.9-0.8 3.7-2 5.2-0.9 1.3-2.1 2.3-3.7 2.8-0.3 0-0.6 0.1-0.9 0.3-0.6 0.4-0.5 1.2 0.1 1.5 0.4 0.2 1 0.3 1.4 0.2 1.1-0.3 2.1 0 3.1 0.3q1 0.3 2 0.4c1.3 0.2 2.5 0.2 3.7-0.4 0.6-0.4 1.2-0.8 1.5-1.5 0.4-1 0-1.8-1.1-1.9-0.2 0.8-0.6 1.5-1.5 1.8-1.3 0.5-2.6 0.3-4.2-0.1zm-7.2-9.1c-0.1-0.6-0.1-1.1-0.3-1.4-0.4-0.9-1-1.5-1.9-2-2-1-4.1-0.6-5.7 1-2.9 2.9-3 7.4-1.7 10.1 1.5 3.2 4.8 4.1 7.7 2 2.3-1.6 2.9-4 2.8-6.7 0-0.5-0.3-1-0.5-1.4-0.3-0.5-0.7-0.7-1.3-0.7 1 1.2 1.1 2.1 0.6 3.4-0.3 0.5-0.6 1-1.1 1.4-1.5 1.5-3.6 0.9-4.2-1.1-0.5-1.6-0.2-3.2 0.8-4.6 1.1-1.4 2.8-1.5 4.2-0.4 0.1 0.1 0.2 0.2 0.6 0.4zm10.6 6.8c1 0 1.7 0 2.3 0 0.6-0.1 1.1 0.1 1.4 0.5 0.2 0.2 0.4 0.4 0.6 0.7 0.6-0.3 1.3-0.5 1.8-0.9 2.3-2 3.5-4.5 3.6-7.5 0-0.6-0.2-1.2-0.8-1.6-1 0.8-1 1.6-0.7 2.7 0.4 1.1 0 1.6-1.2 1.5-0.3-0.1-0.7-0.1-1-0.1-0.8 0.3-1.4-0.1-2-0.6-0.3-0.2-0.5-0.4-0.9-0.7-0.4 2.3-1.4 4.1-3.1 6zm-4.9-8.8c-1 0.8-1 1.7-0.6 2.8 0.3 0.8-0.1 1.4-1.1 1.4q-1.2 0-2.5 0c0.3 2-0.1 3.9-1 5.8 1-0.1 1.8-0.4 2.5-1 2.2-1.9 3.4-4.4 3.5-7.4 0-0.6-0.2-1.2-0.8-1.6zm-8.5 2.2c-0.5-0.7-0.8-0.5-1.2-0.2-1.1 1-1.6 3.4-0.8 4.7 0.2 0.3 0.5 0.6 0.8 0.8 0.8-0.6 1.3-1.2 1.5-2.1 0.2-1 0-1.3-0.9-1.8-0.6-0.3-0.7-0.8-0.1-1.1 0.1-0.2 0.4-0.2 0.7-0.3zm26.9 6.9c-0.7 0.6-1.2 1.1-1.9 1.7 1.5-0.1 1.7-0.3 1.9-1.7zm-15.7 1.7c1.6-0.1 1.9-0.4 1.7-1.6-0.5 0.5-1 1-1.7 1.6z"/>
			<path id="&lt;Compound Path&gt;" fill-rule="evenodd" class="s0" d="m95.9 111.6q0.7-0.7 1.5-1.3c0.2-0.2 0.4-0.4 0.8-0.4q-1.6 1.9-3.3 3.8 0.1 0 0.2 0.1 0.6-0.5 1.2-1c-0.2 0.9-0.9 1.3-1.3 1.9-0.5 0.7-1 1.4-1.3 2.2 0.3-0.2 0.5-0.5 0.8-0.8 0.3 0.5 0 0.7-0.2 1q-1.1 2.1-2.3 4.3-0.1 0.2 0 0.4 0.5-0.7 0.9-1.5 0.1 0 0.2 0.1c0 0.2-0.1 0.5-0.2 0.8-1.7 3.5-2.5 7.2-3.1 11q-0.9 6-1.4 12c-0.2 1.8 0 3.6 0.2 5.4 0.3 4 0.9 8 1.9 12q0.8 3.1 1.5 6.2c0.1 0.7 0 1.4-0.1 2 0 0.3-0.1 0.7-0.7 0.6q0-1.2 0-2.4c-1.1-0.2-2-0.3-3-0.5-4.8-1.1-9-3.5-12.7-6.8-5.2-4.7-8.7-10.5-9.9-17.5-1-5.7-0.2-11.1 2.4-16.2 1.3-2.7 2.9-5.1 4.9-7.3 0.2-0.3 0.3-0.6 0.3-1q0-3.3-0.1-6.7c0-0.1 0-0.2-0.1-0.5-10.5 7.8-16.4 17.8-15.9 31.1 0.2-0.2 0.3-0.4 0.3-0.5 0.1 0 0.1 0 0.3 0 0 1.3 0 2.6 0 4 0.2-0.2 0.3-0.3 0.4-0.4 0.1 0 0.1 0.1 0.2 0.1q0.1 1.6 0.2 3.2c0.1 0.2-0.1 0.4-0.2 0.7-0.5-0.4-0.5-0.9-0.5-1.4-0.1-0.7 0.1-1.4-0.5-2.1-0.3-0.4-0.2-1.2-0.2-1.8 0-0.4 0.2-0.9-0.4-1.2-0.1-0.1-0.1-0.5-0.1-0.8-0.3-6.7 1-13 4.3-18.8 2.3-4.1 5.4-7.6 9-10.6 0.9-0.7 1.7-1.4 2.6-2 0.5-0.4 0.6-0.8 0.7-1.4 0.1-1.7-0.2-3.2-1.2-4.6-0.8-1.1-1.4-2.3-2.1-3.4-0.4-0.7-0.9-1.2-1.8-1.3-2.6-0.4-4.5-2.9-4.1-5.6 0.3-2.4 2.7-3.6 4.9-2.6 2.2 1.1 3.3 3.9 2.5 6.2-0.2 0.5-0.3 0.9 0 1.3 0.8 1.1 1.5 2.3 2.6 3.2 1.6-1.1 2.2-2.6 2.1-4.3-0.1-0.9-0.7-1.7-1.5-2.2-1.8-1.1-3.2-2.5-4.2-4.3-1.9-3.7-2-7.5-0.2-11.3 1.8-3.6 4.6-6.1 8-8.1 0.2-0.1 0.4-0.3 0.5-0.2 0.8 0.4 1.4-0.2 2-0.5 0.4-0.1 0.8-0.6 1.3 0 0 0.1 0.4 0 0.6-0.1q1.1-0.3 2.2-0.6 0.3-0.1 0.7 0.2-0.4 0.2-0.8 0.5v-0.1q-2.4 0.8-5 1.6 0.5-0.4 0.9-0.7-0.1-0.1-0.1-0.2-1.3 0.8-2.7 1.6c-0.3 0.1-0.6 0.7-1.1 0.2 0 0-0.3 0.2-0.5 0.3-3.1 2.2-5.4 5.1-6.4 8.9q-0.8 2.8 0.1 5.6c0.7 2.3 1.8 4.3 3.7 5.8 0.3 0.3 0.6 0.5 1.1 0.8-0.1-1.9 0.3-3.4 1.5-4.6-0.4-0.8-1-1.5-1.3-2.3-1.1-3.3-0.2-6.1 2.2-8.5 2.3-2.3 5.2-3.4 8.4-3.2 1.3 0.1 2.6 0.5 3.7 1.1 2.6 1.1 4.5 3 5.8 5.4 2 3.5 1.6 7 0 10.5-1.3 2.9-3.4 5.2-5.8 7.1-2.6 2.1-5.5 3.8-8.4 5.5-1 0.6-2 1.2-3.1 1.9 0.7 1.8 1.3 3.5 2 5.3 0.3-0.1 0.6-0.2 0.8-0.4 4.6-3 9.2-6.1 13.4-9.7q4.4-3.8 6.7-9.2c1.2-2.8 1.2-5.8 0.3-8.8-0.3-1.3-0.9-2.5-1.3-3.7-0.2-0.3-0.3-0.5-0.2-0.9q0.5 0.6 1 1.3c-0.2-1-0.5-1.4-1.5-2.6-0.6-0.8-1.3-1.5-1.8-2.1 0.1 0 0.4 0.1 0.7 0.2q0.4 0.4 0.7 0.8c1.1 1 2.1 2.1 2.5 3.5 0.1 0.4 0.5 0.7-0.1 1.1-0.1 0 0 0.4 0.1 0.6 1.2 3.1 1.4 6.3 0.6 9.5-0.3 1.5-1 2.9-1.8 4.2-2.2 3.7-5.1 6.6-8.5 9.1-3.1 2.2-6.4 4.4-9.6 6.6q-0.8 0.6-1.7 1.3c0.8 2.4 1.6 4.7 2.4 7q0.5 1.4 0.8 2.9c0.1 0.4 0.1 0.9 0.1 1.6-0.4-0.2-0.6-0.3-0.8-0.5-0.2-0.2-0.3-0.6-0.4-0.8q-2-4-3.9-8.1c-0.1-0.1-0.2-0.3-0.4-0.5-1.3 0.8-2.2 1.6-2.1 3.3 0.1 2.5 0 5 0.1 7.5 0 0.5-0.1 0.9-0.2 1.3-0.6 0.3-0.8-0.2-0.9-0.5-0.6-1.6-1.1-3.2-1.2-5-0.1-0.7-0.2-1.5-0.3-2.5-0.3 0.3-0.6 0.5-0.7 0.7-3.3 4.1-5.6 8.7-6.4 13.9-0.5 3.7-0.4 7.3 0.7 10.9 0.4 1.7 1.2 3.3 2 4.9 3 5.9 7.3 10.6 13.2 13.7 2.6 1.4 5.2 2.4 8.1 2.7 0.3 0 0.6 0 1 0-0.4-2-0.8-3.8-1.3-5.6q-1.9-7.4-2-15c-0.1-2.2 0.1-4.4 0.3-6.6 0.3-4.5 1.2-9 2.3-13.4 0.1-0.6 0.3-1.1 0.4-1.6 0.1-0.6 0.6-1.1 0.2-1.8-0.1-0.1 0-0.4 0.1-0.5 0.4-1.4 0.7-2.8 1.2-4.1 0.7-1.6 1-3.4 2.1-4.9 0.1-0.1 0.2-0.3 0.2-0.4-0.3-0.7 0.3-1.1 0.5-1.6 0.3-0.5 0.6-0.8 0.7-1.4 0.1-0.6 0.6-1.1 1-1.6 0.5-0.6 1.1-1.1 1.2-2 0.1-0.4 0.6-0.7 0.9-1.1 0.4-0.6 0.9-1 1.2-1.8 0.2-0.6 1-1.1 1.5-1.6 0.5-0.4 0.9-0.7 1.2-1.3 0.2-0.6 1-0.9 1.6-1.4 0.3-0.3 0.9-0.3 1-1 0-0.2 0.4-0.4 0.7-0.6 0.8-0.4 1.8-0.7 2.4-1.3 0.9-0.9 2-1.1 2.8-1.7q2.1-0.5 4.2-1.1 0.9-0.1 1.9-0.1 0 0.1 0.1 0.2c-1.5 0.4-3.1 0.7-4.7 1.1 0.3 0.1 0.5 0.2 0.8 0.3-0.9 0.6-2 0.6-2.8 0.9q-1.4 0.6-2.8 1.1 0.1 0.1 0.1 0.2 1-0.3 2.1-0.7 0 0.1 0.1 0.3c-1.2 0.5-2.4 1.1-3.7 1.7 0.3 0.1 0.5 0.2 0.8 0.2-0.3 0.6-0.9 0.7-1.4 1q-0.8 0.5-1.6 1c-0.5 0.3-1 0.5-1.4 1q0.7-0.3 1.3-0.6 0.1 0.1 0.2 0.2c-0.2 0.1-0.3 0.3-0.5 0.5-0.8 0.6-1.7 1.1-2.6 1.8-0.2 0.1-0.3 0.3-0.5 0.5q0.4-0.1 0.7-0.2 0.1 0.1 0.1 0.2-2.1 2.1-4.3 4.1 0.1 0.1 0.2 0.2 0.9-0.8 1.8-1.6 0.1 0.1 0.2 0.1c-0.1 0.2-0.2 0.5-0.3 0.6-1 1-2 2.1-3 3.1-0.2 0.2-0.3 0.5-0.4 0.7q-0.4 0.3-0.7 0.6 0.1 0.1 0.2 0.2 0.3-0.4 0.5-0.8zm5-7.2q0 0 0 0.1 0 0 0 0 0 0 0 0 0 0 0-0.1zm-0.6 0.7q0.3-0.3 0.6-0.6-0.6 0-0.6 0.6zm-18.9-13c1.9-0.7 2.6-1.6 3.1-3.6 0.1-0.7 0.3-1.4 0.5-2 0.3-0.9 1.1-1.2 1.9-1.3 1.3 0 2.5 0.8 2.8 2 0.1 0.6 0.2 1.2 0.2 1.8-0.4 3.7-2.1 6.5-5.5 8-1 0.5-2.1 0.7-3.2 1-0.2 0.1-0.6 0.1-0.7 0.2-1 1.1-2.2 2-2.5 3.5-0.2 0.9-0.6 1.7-1 2.5-0.6 1.3-0.4 2.5 0.5 3.7 0.1-0.1 0.3-0.1 0.5-0.2 2.9-1.8 5.9-3.5 8.7-5.3 3.3-2.1 5.9-4.8 7.7-8.2 1.2-2.3 1.7-4.7 1.2-7.4-1.2-5.4-6.6-10-12.4-9-3.7 0.7-6.3 2.6-7.8 6-0.7 1.6-0.6 3.3 0.1 5 0.3 0.7 0.7 1.4 1.3 1.8 0.9-0.2 1.4-0.7 1.8-1.4 0.6-1.1 1.4-2 2.6-2.4 0.5-0.2 0.9-0.4 1.3 0.2-0.3 0.4-0.7 0.7-1 1.1-0.4 0.6-0.8 1.2-1 1.9-0.1 0.4 0.4 0.9 0.6 1.4 0.1 0.2 0.2 0.4 0.3 0.7zm8-3.5c-0.1-0.5-0.2-1.2-0.5-1.8-0.5-0.7-1.2-1.1-2.2-1-0.8 0.1-1.1 0.8-1.3 1.5-0.2 0.5-0.3 1.1-0.5 1.7-0.4 1.6-1.2 2.8-2.8 3.4-1 0.4-1.9 0.4-2.9 0.3-0.8-0.1-1.3 0.2-1.6 0.9-0.7 1.7 0.3 3.6 2.1 3.8q0.6 0.1 1.2 0c1.7-0.1 3.1-0.7 4.5-1.6 2.6-1.6 3.7-4.1 4-7.2zm-8.2-1.2c-1 0.3-1.7 0.9-2.3 2.3-0.2 0.5-0.5 0.8-1 1-2.2 0.9-3.8 4.2-1.7 6.7 0.2 0.2 0.4 0.5 0.4 0.8 0.1 1.8-0.3 3.5-1.8 4.7-0.6 0.5-0.9 1.1-0.9 1.9-0.1 0.3-0.1 0.6-0.1 0.9q-0.1 4.6-0.1 9.2c0 3.2 0.1 6.4 0.6 9.5 0.1 0.9 0.2 1.8 0.8 2.6 0-1.8-0.1-3.4 0-5.1 0.1-3.8 0.3-7.6 0.4-11.4 0.1-3.5 0.9-6.9 2.4-10.1 0.3-0.6 0.5-1.2 1.2-1.5 0.3-0.1 0.5-0.5 0.9-0.8-0.7-0.1-1.2-0.2-1.6-0.4-0.5-0.2-1-0.4-1.3-0.7-0.9-1.2-1-2.5-0.5-3.8 0.6-1.3 1.7-1.7 3.1-1.1 0.3 0.2 0.7 0.2 1-0.1-0.1-0.8-1.1-1.4-0.6-2.3q0.5-1.2 1.1-2.3zm-8.2 18.2q0.1 0 0.2 0c0.1-0.7 0.2-1.3 0.2-2 0-0.3-0.1-0.6-0.3-0.8q-0.9-1.3-1.9-2.6c-0.6-0.8-0.7-1.5-0.4-2.4 0.7-1.9-0.2-4.1-1.9-5-2-1.2-4.1-0.2-4.4 2.1-0.3 2.5 1.4 4.6 3.9 4.8 0.6 0.1 1.1 0.3 1.4 0.8q0.5 0.7 0.9 1.4 1.2 1.8 2.3 3.7zm8 14.3c-0.6-2.6-3.9-11.3-4.6-12.3-0.2 1.6-0.2 1.6 0.3 2.9q0.6 1.1 1.1 2.2 1.6 3.6 3.2 7.2zm-3.4-4.4c-0.5-0.9-1-1.8-1.4-2.7q-0.1 0-0.2 0.1c0 1.2 0 2.5 0 3.9 0.6-0.5 1-0.8 1.6-1.3zm27-15.5q0 0.1 0.1 0.2 0.4-0.3 0.9-0.6-0.1-0.1-0.1-0.2-0.5 0.3-0.9 0.6z"/>
			<path id="&lt;Compound Path&gt;" fill-rule="evenodd" class="s0" d="m93.2 207.7c0.5-0.2 0.8-0.4 1.2-0.6 3.9-1.8 7.3 0.4 7.9 4.2 0.5 2.9 0.4 5.7-0.8 8.4-0.8 1.8-1.7 3.6-2.5 5.4q-0.9 1.8-1.7 3.6c-0.1 0.3-0.4 0.6 0.1 1q0.5-0.2 1-0.5c0.1 0.1 0.3 0.2 0.3 0.3 0 1 0.2 2.2 0 3.2-0.1 0.6-0.8 1.1-1.3 1.5-1.6 1-3.7 0.6-5.1-1-1-1.1-1.3-2.5-1.4-3.9-0.3-3.3 0.5-6.5 2-9.4 0.9-1.8 1.9-3.5 2.8-5.3 0.4-0.7 0.7-1.6 1-2.3-0.8-0.8-1.1-0.9-1.8-0.4-0.9 0.5-1.7 1.1-2.3 1.9-2.8 3.1-5 6.7-6.7 10.6-0.1 0.4-0.2 0.8-0.3 1.2 0.4 0.4 0.9 0.8 1.1 1.2 0.2 0.2-0.2 0.7-0.3 1.1 0.1 0.3 0.4 0.8 0.3 1.1-0.1 0.4-0.4 0.7-0.8 1-1.9 1.4-4.3 0.9-5.5-1.2-0.7-1-0.9-2.2-1-3.4-0.2-3.4 0.3-6.7 1.9-9.9 1.6-3.3 3.1-6.6 4.6-9.9 0.5-1 0.9-2.1 1.3-3.2 0.2-0.6 0-0.9-0.6-1-0.8-0.2-1.5 0.1-2.1 0.6-1.5 1-2.7 2.4-3.5 4q-2.4 4.5-4.6 9.1-0.7 1.3-1.1 2.8c-0.4 1.2 0.1 2 1.4 2.1 1.2 0.1 1.4 0.3 1.1 1.5-0.1 0.2-0.2 0.5-0.1 0.6 0.4 0.7 0.1 1.2-0.3 1.8-2.2 2.6-7 2.2-8.7-0.8-0.9-1.6-1.2-3.4-1.3-5.2-0.3-4.7 1-8.9 3.5-12.8 1.7-2.7 3.5-5.4 5.2-8.2 0.6-1.1 1-2.3 1.5-3.5 0.3-0.8 0.1-1.2-0.4-1.6-0.6-0.3-1.1-0.2-1.5 0.3-0.2 0.2-0.6 0.3-0.8 0.2-0.3-0.1-0.6-0.5-0.6-0.8 0.2-0.7 0-1.5 0-2.2 0.1-1 0.9-1.6 1.8-1.9 2-0.6 4.1 0.2 5.2 2 1.1 1.7 1.6 3.6 1.7 5.6 0 0.9 0 1.9 0 3.1 0.5-0.3 0.8-0.5 1.1-0.7 1.6-0.9 3.4-1.1 5.1-0.7 1.9 0.5 3.1 1.8 3.7 3.6 0.8 2 0.6 4.1 0.5 6.2-0.1 0.4-0.1 0.7-0.2 1.2zm-7.2 21.2c-1.4-1-1.6-1.6-1.2-3.3 0.2-0.7 0.5-1.4 0.8-2.1q1-2.2 2.2-4.3c1.5-2.6 3.2-5 5.4-7 0.6-0.5 1.3-1.1 2.1-1.2 1.2-0.1 2.3 0.7 2.3 1.9-0.1 0.6-0.2 1.3-0.4 1.9q-1.1 2.4-2.3 4.7c-1 1.8-2 3.7-2.7 5.8-0.4 1.5-0.7 3.1-0.6 4.7 0.1 1.4 0.7 2.5 1.7 3.4 1.3 1 4.2 1 4.9-1.2-1.5 0.1-2-0.4-1.9-1.9 0.1-0.7 0.2-1.4 0.4-2q1-2.2 2.1-4.3c1.1-2.2 2.3-4.5 2.8-7 0.5-2.2 0.4-4.3-1-6.1-1-1.5-2.5-2.1-4.2-1.8-0.8 0.2-1.6 0.5-2.3 0.9-0.8 0.4-1.5 1.1-2.2 1.6-0.3 0.2-0.4 0.6-0.9 0.4 0-0.2-0.1-0.3 0-0.4 0.9-1.5 1.3-3.1 1.6-4.7 0.4-1.7 0.3-3.4-0.4-5-1.2-2.6-4.5-3.6-7.1-2.3-0.9 0.5-1.7 1.2-2.5 1.8-0.3 0.2-0.5 0.3-0.8 0.6-0.3-0.7 0-1.3 0.1-1.8 0.6-2.1 0.5-4.3-0.2-6.4-0.3-0.9-0.7-1.7-1.2-2.5-0.9-1.4-2.8-1.9-4.3-1.3-0.6 0.3-1.1 0.6-1.1 1.5 0.3-0.1 0.4-0.2 0.5-0.2 1.3-0.6 2.4-0.2 2.7 1.1 0.2 0.8 0.2 1.7 0.1 2.5-0.2 1.4-0.8 2.8-1.6 4.1q-2.5 4.2-5.1 8.4c-1.2 1.8-2.2 3.8-2.8 5.9-0.8 2.7-0.9 5.4-0.2 8.1 0.8 2.5 2.5 3.7 5.1 3.5 1.4-0.1 2.6-0.7 3.3-2-0.3-0.1-0.5-0.1-0.8-0.2-1.2-0.3-1.9-1.2-2.1-2.4 0-0.5 0-1 0.1-1.4 0.2-1.5 0.7-2.9 1.4-4.2q2.4-4.8 4.9-9.5c0.9-1.6 2.2-2.9 3.8-3.9q0.5-0.3 1.1-0.4c1.7-0.5 2.9 0.5 2.7 2.3-0.1 0.6-0.3 1.3-0.5 1.9-1 2.2-2 4.4-2.9 6.5-1.3 2.8-2.6 5.6-3.8 8.4-0.8 1.9-1.1 4-0.9 6.2 0.1 1 0.5 2.1 1.2 2.9 1.2 1.5 3.6 1.3 4.7-0.2z"/>
			<path id="&lt;Compound Path&gt;" fill-rule="evenodd" class="s0" d="m200.1 70.2c0-0.9 0.1-1.6 0-2.3-0.2-2.2 0.5-3.9 1.8-5.6 1.2-1.5 2.8-2.7 4.3-3.8 0.8-0.6 1.7-1.2 2.4-1.8 0.6-0.5 1.1-1.1 1.6-1.6-0.3-0.6-0.7-0.7-1.1-0.5-0.5 0.1-0.9 0.4-1 0.9q0 0.2 0 0.3c0 0.5 0 0.9-0.5 1-0.6 0.1-1-0.3-1.1-0.8-0.1-0.5 0-1.1 0.1-1.6 0-0.3 0.2-0.7 0.1-1-0.6-1.7 0.1-3.3 1.8-3.9q1.9-0.7 3.6 0.4c2.1 1.5 3.1 3.5 2.9 6q0 0.8 0 1.6c0.2 2.4-0.5 4.6-2 6.4-1.1 1.3-2.3 2.4-3.5 3.5-1 0.9-2 1.7-2.4 3 0.8 0.9 0.8 0.9 1.6 0.1 1.1-1 2.2-2 3.3-2.9 1.4-1.1 3-1.5 4.7-1.2 0.9 0.2 1.6 0.6 1.9 1.5 0.2 0.6 0 1-0.4 1.3-0.5 0.3-0.9 0.2-1.2-0.4-0.1-0.1-0.2-0.2-0.4-0.4q-0.7 0.3-1.4 0.6 0 0.1 0 0.1 0.9 0.2 1.7 0.3 1.1 0.2 1.6 1.3c0.3 0.6 0.2 1.3-0.4 1.5-0.6 0.3-1 0-1.2-0.6 0 0-0.1-0.1-0.2-0.2-1 0-1.8 0.6-2.4 1.4-1 1.2-2 2.6-3 3.9-1.1 1.5-2.2 3.1-3.4 4.5-1.6 1.9-3.7 3.1-6.2 3.4-3.7 0.5-8.1-2.1-8.3-6.3q-0.1-1.9 0-3.7c0.1-2 1.2-3.5 3-4.4 0.8-0.4 1.6-0.4 2.4-0.3 0.4 0.1 0.7 0.2 1.3 0.3zm17.8-1.6c0-0.9-0.4-1.3-1-1.4-0.6-0.2-1.3-0.3-1.9-0.2-1.1 0.1-2 0.5-2.8 1.2q-1.7 1.5-3.2 3c-0.8 0.8-1.2 0.8-2.1 0.2-1-0.8-1.4-2-0.9-3.4 0.4-1.3 1.2-2.3 2.2-3.2 1-1 2.1-1.9 3.2-2.9 1.6-1.5 2.6-3.4 3-5.6 0.5-2.8-1.2-5.1-3-6.1-1.6-0.8-3.2-0.4-4 0.9-0.4 0.6-0.5 1.2-0.1 2 0.1-0.4 0.1-0.6 0.2-0.8 0.4-1.3 1.7-1.8 2.9-1.1q1.4 0.8 1 2.7c-0.4 1.4-1.2 2.5-2.3 3.4q-1.3 1-2.6 1.9c-1.7 1.2-3.2 2.5-4.4 4.1-0.8 0.9-1.3 2-1.4 3.1-0.1 3.2 2.1 6 5.1 6.7 0.3 0 0.7 0.1 1.2 0.3-1.3 1.3-2.4 2.5-4.1 2.7-1.6 0.3-3.2-0.7-3.7-2.2-0.3-1-0.1-1.6 0.8-2.4 0.1 0 0.1-0.1 0.2-0.3-0.2-0.1-0.3-0.2-0.4-0.3q-0.3-0.2-0.7-0.3c-1.6-0.5-3.5 0.3-4.4 1.9-1.4 2.2-0.8 5.1 1.3 6.8 3.3 2.6 7.3 2.4 10.4-0.5 0.8-0.8 1.5-1.6 2.2-2.5 1.2-1.6 2.3-3.2 3.5-4.8 0.9-1 1.8-2.1 2.8-3 1-0.8 1.9-0.8 3 0.1zm-18.1 4.3c0.4 0.6 0.8 1 1 1.5 0.3 0.9 0.7 1.1 1.8 1-0.4-0.5-0.9-1-1.2-1.5-0.4-0.6-0.7-1.2-1.1-1.8-0.1 0.2-0.3 0.2-0.4 0.4-0.1 0.1-0.1 0.3-0.1 0.4zm10.4-20.8c-0.8-0.8-1.4-0.7-2.1 0.4 0.8-0.1 1.4-0.2 2.1-0.4z"/>
			<path id="&lt;Compound Path&gt;" fill-rule="evenodd" class="s0" d="m31.2 133.5c-0.4 0.5-0.8 0.9-1.1 1.3q-2.4 2.5-5.9 2.6c-1.9 0.1-3.7-0.1-5.3-1-3.4-1.7-6.7-6.8-4.7-12.2 1.1-3 3.1-5.2 6.1-6.3 1.8-0.7 3.6-0.6 5.4-0.1 1.6 0.5 2.6 1.7 2.8 3.3 0.3 1.9-0.1 3.6-1.7 4.8-0.9 0.7-1.9 1.1-3 1q-0.5 0-1.1 0c-0.2 1.8 1.3 4.3 2.9 4.9 0.4 0.1 0.7 0.1 1.1-0.2 0.7-0.6 1.1-1.2 1-2.2-0.1-0.2-0.1-0.5-0.2-0.8-0.1-0.8 0.3-1.1 1.1-1.1 0.5 0.1 1 0 1.5 0-0.3-1-0.5-1.8-0.7-2.7-0.4-1.4-0.1-2.7 0.4-4.1 0.8-2.3 2.6-3.6 5.1-3.8 1.2-0.1 2.5-0.3 3.8 0.3 2.9 1.5 4.1 5.7 2.3 8.4-0.5 0.8-1.1 1.2-2.1 1.1-0.3-0.1-0.6 0-0.9 0q0 0.1-0.1 0.2 0.6 0.5 1.2 1.1c0.8 0.8 1.5 1.7 1.8 2.9 0.9 3.3-1.9 5.9-4.5 5.8q-0.5-0.1-1 0c-1.9 0.1-3.2-0.9-3.9-2.6-0.1-0.2-0.2-0.4-0.3-0.6zm-2.4-4.9q-0.2 0.1-0.3 0.1c0 0.4 0 0.7 0 1.1-0.2 2.2-2.7 3.7-4.7 2.7-2.4-1.2-4.8-5.1-2.7-8.8 0.3-0.6 0.9-1 1.4-1.5 0.5-0.3 1-0.3 1.5 0.1 0.5 0.3 0.6 0.8 0.5 1.4-0.2 1-0.8 1.7-1.8 2q-0.6 0.1-1.1 0.2 0.6 0.4 1.2 0.3c1.7-0.1 3.2-1.5 3.5-3.2 0.6-2.6-1.4-5.2-4-4.7-0.9 0.1-1.7 0.2-2.4 0.6-3.4 1.7-5.3 4.5-5.5 8.2-0.2 3.6 1.4 6.4 4.3 8.4 3.7 2.6 9.1 0.6 10.6-3.5 0.4-1.2 0.3-2.4-0.5-3.4zm8.7-2.4c1.5-0.5 2-1.5 2.1-2.7 0.2-1.6-0.2-3.1-1.2-4.4-0.8-1-1.8-1.8-3.1-1.7-2.2 0.2-3.9 1.2-4.9 3.3-1.3 2.8-0.2 6.5 2.4 8.1 0.7 0.5 1.6 0.8 2.3 1.2 0.8 0.3 1.5 0.7 1.9 1.4 0.7 1.3 0.2 2.4-1.3 2.7-0.8 0.2-1.3-0.2-1.8-0.8-0.3-0.4-0.4-0.8-0.7-1.2-0.1-0.2-0.4-0.4-0.5-0.4-0.3 0-0.5 0.3-0.6 0.5-0.2 0.1-0.2 0.3-0.2 0.5 0 2.1 2 3.5 3.5 3.2 1.8-0.3 3.2-1.7 3.3-3.5 0.1-1.6-0.5-2.8-1.6-3.9-0.5-0.5-1.1-0.9-1.6-1.4-0.8-0.8-1.3-1.7-1.1-2.9 0.1-1 1.2-1.7 2.3-1.5 0.9 0.3 1.6 1.4 1.3 2.4-0.1 0.3-0.3 0.5-0.5 1.1zm-1.5 6.7c0.6-0.3 0.7-0.6 0.4-1-0.2-0.3-0.5-0.7-0.8-0.9-1.3-0.6-2.6-1.2-3.9-1.8 0.1 0.6 0.1 1.1 0.2 1.7q1.1 0 2.1 0c0.8 0 1.1 0.2 1.5 0.9 0.1 0.4 0.3 0.7 0.5 1.1zm1-9.2c-0.7 0.8-0.7 1-0.1 1.9 0.7-0.8 0.7-0.8 0.1-1.9zm-14 0.8q0.1 0 0.2 0.1c0.3-0.3 0.6-0.6 0.5-1.3-0.3 0.5-0.5 0.8-0.7 1.2z"/>
			<path id="&lt;Compound Path&gt;" fill-rule="evenodd" class="s0" d="m125.6 217.4c0.6-0.9 1.1-1.7 1.7-2.4 1.4-1.7 3.2-2.1 5.3-1.4 2.5 0.9 4 2.8 4.7 5.2 0.7 2.1 0.6 4.3 0.4 6.5-0.3 2.2-0.8 4.4-1.2 6.5-0.2 1-0.3 1.9 0.6 2.6 0.4 0.3 0.3 0.6-0.2 1.4 0.2 0.5 0.5 0.9 0.4 1.2-0.2 0.4-0.6 0.9-1.1 1.1-1.6 0.8-3.4 0.3-4.5-1.2-1-1.3-1.2-2.8-1.3-4.4-0.2-3.4 0.3-6.7 0.8-10 0.1-0.5 0.1-1.1 0-1.6-0.1-0.7-0.4-1.3-1.2-1.5-0.7-0.1-1.3 0.2-1.7 0.7-1.3 1.6-2.1 3.3-2.4 5.4q-0.3 3.4-0.6 6.9c-0.1 0.6 0 1.1 0.1 1.7 0.1 0.6 0.4 1 1.1 1.1 0.7 0.2 0.9 0.5 0.7 1.2-0.1 0.5-0.1 0.9 0 1.4 0.2 1-0.4 1.7-1.2 2.2-1 0.6-2.2 0.7-3.3 0.3-1.4-0.6-2.5-1.6-3.1-3q-0.8-1.8-0.9-3.8-0.1-5.1 0.4-10.1c0.2-1.6 0.5-3.2 0.1-4.7-0.2-0.7-0.4-1.3-0.7-1.9-0.4-0.7-0.7-0.8-1.6-0.6-0.8 0.2-1.3-0.1-1.1-0.9 0.1-0.6 0.2-1 0-1.6-0.2-0.6 0.2-1.1 0.6-1.5 1.2-1.1 2.7-1.3 4.2-0.9 2 0.6 3.4 2 4.2 3.9 0.3 0.6 0.5 1.3 0.8 2.2zm11.1 19.5c-1.3-1.1-1.3-2.6-1.1-4 0.2-0.8 0.4-1.5 0.6-2.3 0.6-2.8 1.2-5.5 0.9-8.4-0.4-2.9-1.9-5.1-4.7-6.2-1.7-0.7-3.6-0.2-4.7 1.3-0.6 0.9-1.1 1.8-1.7 2.8q-0.3 0.4-0.6 0.9-0.1-0.1-0.2-0.1-0.2-0.5-0.3-1c-0.4-1.7-0.9-3.4-2.3-4.7-1.1-1-2.3-1.6-3.8-1.4-1 0.1-1.9 0.4-2.3 1.5 1.8 0 2.8 0.8 3.2 2.5 0.2 0.7 0.3 1.4 0.3 2.2 0 1.9-0.1 3.8-0.2 5.8-0.1 2.5-0.3 5-0.3 7.6-0.1 1.4 0.4 2.7 1 4 0.5 1.3 1.6 2 2.9 2.4 1.4 0.4 2.7-0.4 3.1-1.8-1.3-0.6-1.6-1-1.8-2.5q-0.1-1-0.1-2 0.4-4.1 0.7-8.2c0.2-2.1 1.2-3.8 2.4-5.5 0.6-0.8 1.4-1.2 2.4-1 1.1 0.3 1.6 1.1 1.8 2 0.1 1 0.1 1.9 0.1 2.9-0.2 1.6-0.5 3.2-0.7 4.8-0.3 1.8-0.5 3.6-0.1 5.3 0.2 1.1 0.5 2.1 1.2 3 1.1 1.3 3.1 1.4 4.3 0.1z"/>
			<path id="&lt;Compound Path&gt;" fill-rule="evenodd" class="s0" d="m198.6 61.9c0.5 0.8 0.4 1.5 0.1 2.2-0.1 0.3-0.1 0.6 0 0.9 0.4 1.4 0.2 2.5-0.9 3.5-1.5 1.3-3.2 1.8-5.1 1.6-5.1-0.5-7.3-4.7-7.2-8.5q0.1-1 0-2c-0.2-9 8.6-12.3 14-9.8 1.9 0.8 3.9 2.9 3.2 5.5-0.1 0.3 0 0.6 0 0.9 0.6 2.7-1.2 4.8-3.4 5.4-0.2 0.1-0.4 0.2-0.7 0.3zm-3.8-5.8c0.2 0.4 0.2 0.6 0.3 0.7 0.9 1.2 2.6 1.7 4.2 1.2 1.5-0.5 2.4-1.4 2.8-2.9 0.3-1.5-0.1-2.8-1.4-3.7-0.7-0.4-1.3-0.9-2-1.1-4.9-1.9-12.5 1.1-12.4 9.1 0.1 3.9 2.8 6.4 6 6.9 1.8 0.2 3.5 0 4.8-1.2 0.6-0.6 1.1-1.3 0.9-2.5-0.3 0.5-0.5 0.7-0.7 0.9-1.8 1.7-4.8 0.9-5.4-1.5-0.1-0.7-0.1-1.5-0.1-2.2 0.3-2.8 2.2-5 4.7-5.4 0.6-0.2 1.3-0.1 1.9 0.1 1 0.3 1.1 1.4 0.3 2.1-0.6 0.6-1.8 0.7-2.7 0.3-0.4-0.2-0.7-0.5-1.2-0.8zm2.7 5.6c-1.6-0.2-2.6-1-3.5-2.3-0.4 0.6-0.7 1-0.9 1.5-0.7 1.3 0 2.6 1.4 2.8 1.3 0.2 2.2-0.4 3-2zm-2-3.4c0.8 1.3 1.8 1.5 2.8 0.6-0.9-0.2-1.7-0.4-2.8-0.6z"/>
			<path id="&lt;Compound Path&gt;" fill-rule="evenodd" class="s0" d="m189.1 36c-0.4-0.1-0.7-0.2-1-0.4-0.3-0.2-0.7-0.5-0.7-0.7 0.1-0.4 0.4-0.7 0.7-0.9 0.2-0.2 0.6-0.2 1.1-0.3-0.1-0.6-0.4-1-1-1.1-0.5-0.1-0.8-0.3-0.8-0.8 0-0.5 0.5-0.9 1.1-0.9 1-0.1 1.8 0.4 2.5 1.2 0.7 0.8 1.1 1.8 1.1 2.8 0 2.5 0.3 5.1-0.6 7.5-0.6 1.7-1.2 3.4-2 5-1.7 3.1-3.5 6.1-5.3 9.2-0.4 0.7-0.8 1.6-1.3 2.4 0.4 0.3 0.6 0.4 0.9 0.6 1 0.5 1.1 1 0.7 2-0.2 0.3-0.4 0.5-0.6 0.8 1 1.2 1 2.2-0.2 3.1-0.9 0.7-2 1-3.1 0.8-2.4-0.5-3.9-2.1-4.2-4.7-0.2-2.1-0.2-4.2 0.1-6.3 0.1-1.3 0.7-2.5 1.4-3.6 0.8-1.5 1.9-2.8 2.9-4.2 2.4-3.2 4.8-6.3 7.2-9.5 0.4-0.5 0.7-1.2 1.1-2zm-0.6-4.3c1.7 0.8 1.8 2.2 1.4 3.6-0.2 1.1-0.7 2.2-1.3 3.3-0.9 1.4-1.9 2.8-2.9 4.1-1.9 2.4-3.8 4.8-5.6 7.1-1.3 1.7-2.4 3.5-2.9 5.6-0.4 1.8-0.3 3.5 0.6 5.2 0.6 1.3 1.7 1.9 2.9 2.1 1.7 0.4 3.1-0.7 3.2-2.1-2-1.2-2.3-1.9-1.8-4.2 0.3-1.7 1.2-3.1 2.1-4.5 1.4-2.5 2.9-5 4.3-7.5 1.3-2.2 2.4-4.5 2.8-7.1 0.2-1.3 0.2-2.6-0.3-3.8-0.4-1.1-1.1-1.8-2.5-1.8z"/>
			<path id="&lt;Compound Path&gt;" fill-rule="evenodd" class="s0" d="m50.8 131.2q-0.2-0.5-0.3-1.1c0-0.1 0-0.2 0.1-0.2 0.9-0.5 2-0.4 2.9-0.1 0.9 0.2 1.4 1 1.7 1.9q0.8 2.4-0.9 4.3c-1.3 1.5-2.9 2.3-4.8 2.3-1.4 0-2.7 0-4-0.6q-3-1.4-3.5-4.7c-0.3-1.9-0.2-3.7 0.4-5.4 0.7-2.1 1.4-4.2 2.1-6.2q0.4-1.3 0.8-2.5c0.2-0.8 0.2-1.2-0.7-1.4-0.3 0.9-0.3 0.9-1.2 0.7-0.2 0-0.5 0-0.7 0-0.7 0.3-1.1 0-1.5-0.6-0.4-0.5-0.4-1.1-0.1-1.7 0.7-1.1 1.8-1.4 2.9-1.4 0.6-0.1 1.3 0 2 0 0.1-1.2-0.1-2.1-0.7-2.9-0.6-0.6-1.2-1.1-2.1-0.7-0.4 0.1-0.7 0.1-0.9-0.3-0.3-0.4 0-0.8 0.3-1 0.1-0.2 0.3-0.3 0.5-0.3 2.8-0.7 5.6-0.6 7.1 2.5 0.5 0.9 0.7 2 1.1 2.9 0.8 0 1.7-0.1 2.5 0 1.5 0.2 2.6 2.4 1.8 3.8-0.6 1.2-1.5 2-3 2-0.4 0-0.8 0-1.3 0q-0.2 0.9-0.3 1.7c-0.4 1.7-0.7 3.4-0.9 5-0.2 1-0.1 2-0.1 3 0.1 0.4 0.3 0.8 0.5 1.1q0.1 0 0.3-0.1zm1.3-15.9c0 0.4 0 0.8-0.2 1-0.2 0.4-0.4 0.7-0.7 0.9-1 0.7-2 0.1-2-1-0.1-0.6-0.1-1.2-0.3-1.8-0.3-1.5-1-2.9-2.1-4-1.1-1.2-2.7-1.2-3.8-0.3 2.9-0.1 4.7 2.9 3.3 5.6q-0.5-0.2-1.1-0.4c-1-0.4-2-0.4-2.9 0.2-0.9 0.5-1 1.3-0.2 2.1 0.9-1.4 1.4-1.5 2.9-0.7q0 0 0.1 0.1c1.2 0.7 1.3 0.7 0.8 2-0.5 1.8-1.2 3.5-1.7 5.2-0.6 1.8-1.2 3.6-1.5 5.5-0.4 1.6-0.4 3.3 0.3 4.8 0.9 2.1 2.7 3.1 4.9 3.2 2.3 0 4-1 5-3 0.7-1.3 0.5-2.5-0.3-3.6-0.2-0.4-0.6-0.8-1.3-0.8 0 0.3 0.1 0.6 0.1 0.8-0.1 1.1-0.7 1.5-1.7 1.3-0.6-0.1-1.1-0.5-1.4-1-0.6-1-0.7-2.1-0.6-3.1 0.3-1.8 0.6-3.6 0.9-5.4 0.2-1.1 0.5-2.1 0.7-3.2 0.6 0 1.2 0.1 1.7 0.1 1.2 0.1 2.5-1 2.7-2.1 0.2-1-0.4-1.9-1.6-2.4z"/>
			<path id="&lt;Path&gt;" class="s0" d="m147.5 106.8c-0.2-0.2-0.4-0.3-0.9-0.7 1.4 0.3 2.5 0.5 3.7 0.3 4-1 6.9-3.2 8.5-7q0.1-0.1 0.1-0.3 0.1-0.1 0-0.3c-3.2-0.5-6.5-0.9-9.8-0.2-1.9 0.4-3.7 0.4-5.6-0.1-1.4-0.3-2.7-1-3.5-2.4 0.2 0.1 0.4 0.2 0.5 0.3 1.8 1.7 4 2.1 6.3 1.9 1.4 0 2.8-0.2 4.1-0.5 1.8-0.4 3.5-0.2 5.2 0.1 0.7 0.1 1.4 0.2 2 0.3 1.3 0.1 2.1-0.5 2.7-1.7-1.7 1-3.5 0.7-5.2 0.4-2.1-0.5-4.1 0-6.2 0.3-2 0.3-4 0.5-6-0.1-2-0.5-3.6-1.5-4-3.7-0.1-0.7 0-1.4 0-2.1-1.1-0.5-2.5-0.5-3.2-1.7 1.1 0.4 2.2 1 3.5 1.1 0.9-1.2 1.7-2.4 3.3-2.4q-0.3 0.1-0.5 0.3c-0.5 0.4-1 0.8-1.5 1.2-1.9 2.1-1.4 5 1.2 6.3 1.7 0.8 3.6 1.1 5.5 0.8q2.1-0.2 4.2-0.6c1.4-0.3 2.8-0.2 4.2 0.1q1.2 0.2 2.5 0.2c2.2 0 3.6-2 2.9-4.1-0.3-0.8-0.7-1.6-1.5-2-1 0.4-2 1.1-3.3 0.6-0.2 0-0.3-0.3-0.4-0.5 0.8 0.2 1.5 0.3 2.3-0.1 1.2-0.5 1.8-1.6 1.4-2.8-0.4-1.2-1.7-2-2.9-1.7-0.7 0.2-1.4 0.6-2.2 0.9 0.2-0.9 1-1 1.6-1.3-0.6-0.1-0.6-0.1-1.7 0.4 0.5-1.1 1.6-1.5 2.6-1q1.1 0.6 2.3 1.1c0.9-0.3 1.4-1 1.9-1.8 1.3-1.9 1.7-4 1.3-6.2-0.1-0.5 0-0.9 0.3-1.4 1.3-1.9 0.2-3.9-1.1-4.7-1.4-0.9-2.9-1.3-4.5-1-1.2 0.3-2.5 0.5-3.7 0.8-1.7 0.4-3.3 0.1-4.6-1-1.2-1-2.6-1.7-4.1-1.9-3.7-0.6-6.8 0.4-8.9 3.7-1.8 2.7-1.1 6.2 0.7 8.3 0.6 0.7 1.4 1.3 2.1 1.9-0.9-0.1-2.4-0.9-3-2-1.2-1.9-1.9-4-1.3-6.3 0.8-3.2 3.5-5.8 7-6.3 3-0.4 5.6 0.2 7.9 2.2 1.1 0.9 2.4 1.2 3.8 0.9 1.1-0.2 2.2-0.5 3.4-0.8-0.2-0.5-0.4-0.9-0.7-1.3 0.9 0 0.9 1.5 2 1.1q-0.3-0.5-0.5-1c-0.2-0.3-0.4-0.6-0.7-0.9 0.6 0.3 0.6 0.3 1.4 1.4 0.4 0.5 0.4 0.5 1.2 0.5-0.9-2-2.2-3.7-3.9-5.2q0.1-0.1 0.2-0.2c0.5 0.5 1.1 0.8 1.4 1.3 0.9 1.2 1.7 2.4 2.5 3.7 0.3 0.3 0.3 0.8 1.1 0.7-0.3-1.3-1.1-2.4-1.8-3.5-0.8-1-1.6-2-2.4-3.1 0.3 0.1 0.5 0.3 0.7 0.5q2.5 2.5 3.9 5.8c0.1 0.4 0.2 0.9 1 1-0.1-0.5-0.2-0.9-0.3-1.2-1.1-3.4-3.2-6-5.7-8.4-2.1-2-4.6-3.2-7.5-3.7-1.8-0.4-3.5-0.1-5.3 0.1-0.2 0.1-0.4 0.1-0.7 0.1 0.4-0.6 0.9-0.6 1.4-0.7 5-0.9 9.3 0.7 12.9 4.2 2.5 2.2 4.4 4.9 5.5 8.1 0.1 0.2 0.2 0.5 0.2 0.8 0.2 0.9 0.5 1.7 1 2.5 0.7 1.1 0.7 2.3 0.1 3.5-0.4 0.7-0.4 1.3-0.4 2 0.2 3.2-0.9 5.8-3.2 8.1 0.5 1 0.7 2.1 0 3.2 0.5 0.6 0.9 1.1 1.3 1.7 0.7 1.1 0.8 2.3 0.2 3.5-0.1 0.3-0.2 0.6-0.2 0.8 0 0.9-0.4 1.5-1 2-0.5 0.3-0.7 0.8-0.9 1.3-1.5 3.8-4.3 6.2-8.1 7.5-1.4 0.5-2.8 0.3-4.1 0.1 0 0 0 0 0 0z"/>
			<path id="&lt;Compound Path&gt;" fill-rule="evenodd" class="s0" d="m101.7 225.2c0-3.2 0.6-6.2 2.9-8.6 0.7-0.7 1.5-1.4 2.4-1.9 2.9-1.6 6.9-0.4 8.5 2.7 0.3 0.6 0.4 1.4 0.4 2.2 0 0.5 0.1 1 0.4 1.5 0.8 1 1 2.1 1 3.3 0 1.6 0 3.2-0.5 4.8-0.6 2.1-1.9 3.9-3.6 5.2-3.2 2.4-7.4 1.6-9.7-1.7-1.4-1.9-1.7-4.1-1.8-6.3q0-0.6 0-1.2zm13.4-3.5c0.4-1.1 0.1-1.8-0.4-2.5-1.5-2.4-4.3-2.9-6.4-2.4-2 0.5-3.2 1.9-4.2 3.6-2 3.1-2.2 6.6-1 10 1.4 4.1 5.9 6.2 10 3.1 2.8-2 3.6-5 3.4-8.4 0-0.5-0.3-1.1-0.7-1.6-0.4-0.6-0.9-1-2-0.8 1.1 0.5 1.4 1.2 1.5 2.1 0.1 1.7-1 3.7-2.5 4.5-1.6 0.8-2.9 0.2-3.8-0.9-0.3-0.4-0.6-0.9-0.7-1.5-0.4-1.4-0.2-2.9 0.4-4.2 1.1-2.4 4.3-3.8 6.4-1zm-2.8-0.9c-1.5 0-2.7 1.1-3.2 2.8-0.3 1.2 0.2 2.3 1.3 3 0.9 0.5 1.8 0.4 2.8-0.5q0.4-0.4 0.7-0.9c0.7-1 0.6-1.2-0.5-1.7-0.3-0.1-0.6-0.3-0.7-0.5 0-0.3 0.3-0.6 0.5-0.9 0.1-0.2 0.3-0.2 0.3-0.3-0.4-0.3-0.8-0.7-1.2-1z"/>
			<path id="&lt;Path&gt;" class="s0" d="m67.8 165.2c0-0.1 0.1-0.2 0.2-0.5 0.3 0.3 0.6 0.6 0.9 0.9 5.3 5.7 11.8 9.4 19.5 10.8 2.5 0.5 5.1 0.6 7.7 0.8 0.8 0.1 1.5 0.3 2.2 0.8 3.8 2.7 8 4.9 12.7 6 0.7 0.1 1.4 0.3 2.1 0.7q-0.1 0.2-0.1 0.3-0.6-0.1-1.2-0.2c-4.5-1-8.7-3-12.6-5.4-1.1-0.7-2.2-0.9-3.5-0.9-6.3-0.1-12.3-1.5-17.8-4.7-3-1.6-5.8-3.5-8-6.1-0.1-0.2-0.3-0.3-0.4-0.4 0 0 0 0 0 0q-0.4-0.5-0.8-1-0.1-0.1-0.2-0.2-0.3-0.4-0.7-0.9c0 0 0 0 0 0z"/>
			<path id="&lt;Compound Path&gt;" fill-rule="evenodd" class="s0" d="m115.5 93.8q-2.1 0.6-4.2 1.1c-0.3-0.1-0.1-0.3 0-0.4 0.4-0.1 0.8-0.3 1.3-0.5 2.4-0.6 4.6-1.7 7.1-2.2 1.3-0.3 2.7-0.6 3.9-1.1 1-0.4 1.9-0.9 2.8-1.5 0.5-0.3 0.8-0.9 1.2-1.4-0.2-0.1-0.3-0.2-0.4-0.2-1.8 0.1-2.8-1-3.3-2.6-0.2-0.6-0.3-1.3-0.4-1.9q-0.1-2.8-1.1-5.4c-0.3-0.9-0.5-1.8-0.2-2.8 0.4-1.5 1.2-3.2 4-3 0.8-3.9 2.2-7.5 5-10.6 0 0.2 0.1 0.2 0.1 0.3q0 0.1 0 0.2 1.4-1.4 2.9-2.8 0.1 0 0.1 0.1-0.6 0.9-1.3 1.8c0 0 0.1 0 0.1 0-0.9 0.9-1.7 1.9-2.4 2.9-0.4 0.5-0.7 1.1-1 1.6-0.2 0.2-0.2 0.6-0.7 0.5-0.1-0.1-0.3 0.1-0.4 0.3-0.8 1.9-1.5 3.9-1.6 6 0.1 0.1 0.1 0.2 0.2 0.3 2.7 1.8 3.9 4.4 4.1 7.4 0.2 1.5 0 3-0.1 4.5-0.2 1.3-0.9 2.3-2.2 2.8-0.3 0.1-0.7 0.4-0.8 0.7-0.8 1.6-2.1 2.5-3.7 3.1-1.3 0.5-2.7 0.8-4 1.2-0.1 0.1-0.1 0.5-0.2 0.5-0.5 0.1-1 0.2-1.5 0.3q-1.7 0.4-3.3 0.8zm15.5-12.1c0-1.8-0.3-3.5-1-5.1-0.6-1.5-1.7-2.8-3.1-3.6-0.4-0.3-0.8-0.5-1.3-0.5-1.5-0.1-2.9 1.1-3 2.8 0 0.9 0.1 1.8 0.4 2.6 0.5 1.6 0.9 3.1 1 4.8q0.1 1.3 0.5 2.5c0.4 1.2 1.3 1.8 2.5 1.9 1.7 0.1 3.3-1.1 3.7-2.7 0.2-0.9 0.2-1.8 0.3-2.7z"/>
			<path id="&lt;Compound Path&gt;" fill-rule="evenodd" class="s0" d="m154.2 83.7c-0.7-0.1-0.8-0.6-1-0.9-1.6-3.1-0.8-6.6 1.2-8.7 0.6-0.6 1.4-0.7 2.2-0.8 1.2-0.3 2.4-0.1 3.6 0.4 1.2 0.4 1.7 1.3 2.3 2.2q0 0.1-0.1 0.2c-0.2-0.1-0.4-0.1-0.6-0.3-1.9-1.7-4.2-1.7-6.5-1-0.9 0.3-1.5 1-1.9 2 2.9-1.1 5.6-1.3 7.9 0.9-0.2-0.1-0.4-0.1-0.6-0.3-2.3-1.5-4.6-1.4-6.9-0.2-0.6 0.2-1 0.6-0.9 1.4 4.4-1.8 7.5-1.3 9.4 1.5-0.9 1-2.4 1.7-3.7 1.8 1-0.6 1.9-1.2 2.9-1.9-0.5-0.4-0.8-0.7-1.2-1-1 1.4-2.2 2.3-3.9 1.8-0.8-0.2-1.6-0.6-1.8-1.9 0.3 0.3 0.5 0.5 0.7 0.7 0-0.4 0-0.7 0-1 1.3 0.8 1.6 0.7 1.9-0.6-1.7-0.1-3 0.4-4.2 1.5 0.9 1.1 2 1.6 3.1 2.2-1.1 0-2-0.6-3-1.2-0.1 1.3 0.6 2.2 1.1 3.2zm5.3-4.9c-0.4 0.5-0.8 0.9-1.3 1.5 0.8-0.5 1.2-0.8 1.3-1.5z"/>
			<path id="&lt;Path&gt;" class="s0" d="m144.3 106.6c-0.2 0.1-0.4 0.3-0.6 0.3-0.3-0.2-0.5-0.4-0.9-0.6-0.1-0.1-0.4 0-0.6 0 1.3 5.8 2.7 11.4 4 17.2q0.3-0.2 0.7-0.3c1.7-0.7 3.4-1.4 5.2-2 0.7-0.3 1.3-0.5 1.7-1.1 0.1-0.2 0.2-0.4 0.6-0.5q-0.1 0.5-0.2 0.9v-0.1c-0.5 0.8-1.3 1.1-2.2 1.4-1.6 0.4-3.1 1.1-4.6 1.8-0.4 0.2-0.8 0.5-1.2 0.7 0.4 2.3 1.1 4.6 0.8 7 1.4-0.3 2.7-0.6 3.9-1 0.4-0.1 0.7-0.3 0.9 0.2q-0.1 0.1-0.2 0.1c-0.9 0.3-1.8 0.5-2.7 0.8-0.9 0.3-1.8 0.6-2.8 1 0.9-2.8-0.1-5.4-0.5-7.9-1.1-6.9-2.9-13.5-4.8-20.2-0.4-1.6-1.3-3.2-2.2-4.7-1-1.8-2.6-3.1-4.6-3.9-0.2-0.1-0.3-0.2-0.6-0.4 0.8-0.3 1.3 0 1.8 0.3 1.3 0.6 2.4 1.5 3.3 2.7 1.2 1.6 2.2 3.4 2.8 5.3 0.4 1.1 1.2 2 2.2 2.5q0.4 0.3 0.8 0.5z"/>
			<path id="&lt;Compound Path&gt;" fill-rule="evenodd" class="s0" d="m143.5 80.8c-1.7 0-3-0.9-4.5-1.6 2.3-3.6 8.3-3.7 10.7-0.3-1 0.7-2 1.5-3.4 1.6 0.8-0.6 1.7-1.1 2.6-1.7-0.5-0.7-1.1-1-1.8-1.3-0.6 1.6-1.6 2.7-3.3 2.6-1-0.1-1.9-0.3-2.3-1.5 1 1.1 2.1 1.4 3.5 0.8-1.2 0.1-2.3 0.1-3.1-1.3 0.7 0.1 1.4 0.7 1.8 0 0.2-0.2 0.1-0.6 0.1-1.1-1.6 0.2-2.8 0.9-4 2.1 1.3 0.6 2.5 1.1 3.7 1.7zm3-3.3q-0.2 0-0.3 0-0.1 0.4-0.3 0.9 0.1 0 0.2 0 0.2-0.4 0.4-0.9z"/>
			<path id="&lt;Path&gt;" class="s0" d="m149.4 83.6c0.2-0.9 0.5-1.9 0.6-2.8 0.2-1.9-0.2-3.6-1.2-5.2-0.5-0.9-1.2-1.5-2.1-1.9-2.9-1.2-6-0.6-8.2 1.5-0.2 0.2-0.3 0.3-0.6 0.5-0.3-0.5-0.1-0.8 0.2-1.1 1-1.2 2.1-2.1 3.7-2.4 1.2-0.3 2.5-0.7 3.8-0.3 0.2 0.1 0.5 0.1 0.7 0.2 2.2 1.5 3.7 3.5 4.2 6.2 0.2 1.2 0.2 2.3-0.1 3.5-0.2 0.7-0.4 1.4-1 1.8z"/>
			<path id="&lt;Path&gt;" class="s0" d="m149 90c-1.1 1.5-3.8 0.8-4.3-0.9-0.4-1.6 0.2-3.1 1.6-3.7q0.3-0.2 0.6-0.5c1.2-1.1 2.9-0.9 4 0.7-1-0.5-1.7-1.2-2.7-0.8 2.5 1 2.5 1 2.6 1.8-0.6-0.4-1.3-0.8-2-1-1-0.3-1.9 0-2.7 0.5-0.9 0.6-1.2 1.9-0.8 2.9 0.4 0.9 1.5 1.6 2.6 1.4 0.4-0.1 0.8-0.2 1.1-0.4z"/>
			<path id="&lt;Path&gt;" class="s0" d="m68.5 166.1q0.1 0.1 0.2 0.2 0.4 0.5 0.8 1c0 0 0 0 0 0-0.2 0.4-0.5 0.3-0.7 0.1-0.4-0.5-0.8-1-1.2-1.5-0.4-0.4-0.5-1.1-1.3-1.1-0.3 0-0.5-0.6-0.8-1-0.3-0.5-0.4-1.3-1.2-1.5-0.3-0.1-0.5-0.7-0.6-1q-0.5-0.9-0.9-1.8 0 0 0 0-0.2-1.3-0.5-2.6 0.1-0.1 0.2-0.1 0.6 1.8 1.3 3.5 0 0 0.1 0 0-0.6-0.1-1.1 0.1 0 0.1-0.1 1 2.2 2 4.4 0.1-0.1 0.1-0.1c-0.1-0.5-0.3-1.1-0.6-1.8 0.9 1.3 1.7 2.5 2.4 3.6 0 0 0 0 0 0q0.4 0.5 0.7 0.9z"/>
			<path id="&lt;Path&gt;" class="s0" d="m128.8 141.6q0.3-0.5 0.6-0.9c0.2 0 0.3 0.1 0.7 0.2-0.8 1-1.4 1.8-1.9 2.5-0.1 0.5 0 0.8-0.2 1-0.6 0.6-1.3 1.2-1.9 1.7q-0.8 0.8-1.5 1.5c-0.1-0.1-0.2-0.2-0.2-0.3q0.3-0.4 0.6-0.8c0.4-0.5 0.9-0.8 0.9-1.5 0-0.3 0.5-0.5 0.7-0.8q1.1-1.3 2.2-2.6z"/>
			<path id="&lt;Path&gt;" class="s0" d="m151.1 90.3c-0.3-0.7-0.5-1.1-0.7-1.5-0.2-0.3-0.6-0.6-0.9-0.9-0.2 0.4-0.3 0.7-0.5 0.9-0.2 0.5-0.6 0.5-1.1 0.5-0.5-0.1-0.8-0.5-0.8-0.9-0.1-0.5 0.1-0.9 0.5-1.1 0.4-0.2 0.8-0.3 1.1-0.2 1.2 0.1 2.5 1.4 2.7 2.5 0 0.1-0.1 0.2-0.3 0.7z"/>
			<path id="&lt;Path&gt;" class="s0" d="m156.4 88.3c-1 0.3-1.3 1.2-2 1.9-0.1-0.4-0.2-0.5-0.1-0.7 0.3-1 1.9-2.1 2.9-2.1 0.3 0 0.7 0.2 1 0.3 0.4 0.3 0.6 0.8 0.3 1.2-0.1 0.3-0.5 0.6-0.8 0.7-0.5 0.2-0.8-0.1-1.1-0.5-0.1-0.2-0.1-0.5-0.2-0.8z"/>
			<path id="&lt;Path&gt;" class="s0" d="m60.9 155.4q0 0.5 0 1-0.1 0-0.2 0.1c-0.2-0.5-0.4-0.9-0.5-1.4-0.2-0.8-0.2-1.7-1-2.2-0.1-0.1-0.2-0.2-0.2-0.4-0.3-1.4-0.5-2.9-0.1-4.4q0.3 2 0.7 4 0-0.5 0.1-1 0.1 0 0.2 0 0.5 2.2 1 4.3c0 0 0 0 0 0z"/>
			<path id="&lt;Path&gt;" class="s0" d="m138.3 57.8c-1.2 0.3-2.2 1.1-3.1 2-1 0.9-1.8 1.9-2.7 2.9q-0.4 0.3-0.7 0.6-0.1-0.1-0.2-0.2 0.2-0.4 0.5-0.8 0.5-0.7 1-1.4c0 0-0.1 0-0.1 0q0.5-0.4 0.9-0.7 1.7-1.2 3.3-2.4c0.3-0.2 0.7-0.4 1.1 0z"/>
			<path id="&lt;Path&gt;" class="s0" d="m156.5 146.7c-0.3 0.2-0.7 0.4-1.1 0.6 0-0.6 0.4-0.8 0.7-1 0.6-0.5 1.2-0.8 1.7-1.6 0.4-0.7 1.4-0.9 2.3-0.9-0.4 0.8-1 1.2-1.7 1.6-0.5 0.3-1 0.8-1.4 1.2q-0.3 0-0.5 0.1z"/>
			<path id="&lt;Path&gt;" class="s0" d="m138.3 57.8c0.6-0.3 1.2-0.5 1.9-0.7 0.4-0.2 0.9-0.2 1.4-0.2q-0.9 0.5-1.7 1-0.2 0-0.4 0.1c-0.8 0.4-1.5 0.8-2.3 1.3-0.5 0.3-1 0.7-1.7 1 0.1-0.2 0.1-0.4 0.2-0.5 0.6-0.5 1.2-0.9 1.8-1.4q0.4-0.3 0.8-0.6c0 0 0 0 0 0z"/>
			<path id="&lt;Path&gt;" class="s0" d="m135.7 177.8q0.3 0 0.7 0c-0.8 1.2-4.9 2.7-7.4 2.5 0.5-0.1 0.9-0.2 1.4-0.4q2.4-0.8 4.8-1.7c0.2-0.1 0.3-0.3 0.5-0.4 0 0 0 0 0 0z"/>
			<path id="&lt;Path&gt;" class="s0" d="m142.7 153.5q0.1 0 0.3 0.1c-1.3 1-2 2.5-3.5 3.3q-0.6 0.3-1.2 0.7v-0.1q-0.7 0.3-1.4 0.5-0.1-0.1-0.1-0.1c0.4-0.2 0.8-0.4 1.2-0.7 0.4-0.3 1.2-0.2 1.2-1.1 0-0.1 0.4-0.3 0.6-0.4q1.5-1.1 2.9-2.3 0 0.1 0 0.1z"/>
			<path id="&lt;Path&gt;" class="s0" d="m105.9 126c0 0-2.7 7.9-2.8 8.1 0.2-3.1 1.2-5.7 2.8-8.1z"/>
			<path id="&lt;Path&gt;" class="s0" d="m148.7 76.5c-3.6-2.3-6.3-2.2-10 0.4 0.2-0.2 0.3-0.5 0.5-0.6 0.6-0.4 1.2-0.9 1.9-1.1 1.8-0.7 3.6-0.8 5.5-0.3 0.8 0.3 1.6 0.8 2.1 1.6z"/>
			<path id="&lt;Path&gt;" class="s0" d="m156.5 146.7q0.2-0.1 0.5-0.1c0.3-0.2 0.6-0.3 1.2-0.6-0.7 0.7-1.2 1.2-1.7 1.8q-0.9 0.8-1.9 1.6-0.4 0.3-0.7 0.7c-0.4-0.1-0.6-0.3-0.3-0.7 0.4-0.4 0.8-0.8 1.3-1.2q0.8-0.8 1.6-1.5z"/>
			<path id="&lt;Path&gt;" class="s0" d="m128.6 181.8q-1.7 0.2-3.4 0.4 0-0.1 0-0.2 3.9-1 7.9-2c-0.1 0.5-0.5 0.5-0.8 0.7-1.1 0.3-2.1 0.6-3.2 0.9q-0.3 0.1-0.5 0.2z"/>
			<path id="&lt;Path&gt;" class="s0" d="m103.8 140.2c-0.2-2.6 0.5-6.6 1.5-7.5-0.5 2.4-0.9 4.9-1.5 7.5z"/>
			<path id="&lt;Path&gt;" class="s0" d="m125.9 183.6c-2.4 0.6-4.7 0.6-7.1 0 0.7-0.3 1.5-0.1 2.3-0.1q1.2 0 2.4 0c0.8-0.1 1.6-0.2 2.4-0.3q0 0.2 0 0.4z"/>
			<path id="&lt;Path&gt;" class="s0" d="m121.9 184.6c-2.5 0.5-4.9-0.3-7.1-1.4q3.6 0.7 7.1 1.4z"/>
			<path id="&lt;Path&gt;" class="s0" d="m127.5 118.8q-2-2.3-4-4.7c1.9 1.1 3.4 2.5 4 4.7z"/>
			<path id="&lt;Path&gt;" class="s0" d="m154.8 100.4c-2.4-1.1-4.5-0.6-6.5 1 0.6-1.2 2.5-2.1 4.2-2.1 1.1-0.1 1.8 0.2 2.3 1.1z"/>
			<path id="&lt;Path&gt;" class="s0" d="m152.4 88.5c0.3-1.6 0.1-3.1-0.9-4.4 1 0.2 1.6 1.2 1.7 2.6 0.1 1.1 0 1.4-0.8 1.8z"/>
			<path id="&lt;Path&gt;" class="s0" d="m103.4 136.6c0.1-2.7 0.7-4.9 1.9-7.3 0.1 0.4 0.2 0.5 0.1 0.6-0.6 2.2-1.2 4.3-2 6.7z"/>
			<path id="&lt;Path&gt;" class="s0" d="m103.3 130.1c0.5-2.6 1.2-5.1 2.9-7.2q-1.4 3.6-2.9 7.2z"/>
			<path id="&lt;Path&gt;" class="s0" d="m128.6 181.8q0.2 0.1 0.6 0.1c-0.9 0.9-5.3 1.5-7.5 1 1.4-0.1 2.5-0.2 3.6-0.4 1.1-0.1 2.2-0.4 3.3-0.7 0 0 0 0 0 0z"/>
			<path id="&lt;Path&gt;" class="s0" d="m139.5 58q0.2-0.1 0.4-0.1c1.8-0.6 3.6-1.1 5.7-1-2.2 0.6-4.3 1.1-6.4 1.7q0.1-0.3 0.3-0.6z"/>
			<path id="&lt;Path&gt;" class="s0" d="m101.4 169.7c-1.1-1.1-1.6-4.2-0.9-5.9 0.1 1 0.1 2 0.2 3 0.2 0.9 0.4 1.9 0.7 2.9z"/>
			<path id="&lt;Path&gt;" class="s0" d="m109.5 131c0-2.5 0.7-4.9 2.1-6.9-0.9 2.2-1.7 4.5-2.1 6.9z"/>
			<path id="&lt;Path&gt;" class="s0" d="m98.5 78.8q-0.3-0.4-0.7-0.8-1.4-1-2.7-2c-0.3-0.2-0.5-0.3-0.7-0.6q0.6 0.1 1.3 0.3 0.8 0.5 1.6 1.2c0.6 0.5 1.2 1 2 1.7-0.4 0.1-0.6 0.1-0.8 0.2z"/>
			<path id="&lt;Path&gt;" class="s0" d="m153.7 170.6q0.2-0.1 0.4-0.1 0.1 0 0.1 0.1-0.6 0.5-1.2 1.1c-1.2 1.1-1.4 2.2-0.8 3.7 0.1 0.5 0.3 0.9 0.4 1.4-1.5-1.6-1.5-4.1 0.3-5.5q0.2-0.2 0.5-0.5 0.1-0.1 0.3-0.2z"/>
			<path id="&lt;Path&gt;" class="s0" d="m109.7 135.5c-0.4-2.5 0.5-4.7 1.5-6.9 0 1.3-0.6 2.3-0.9 3.5-0.3 1.1-0.4 2.3-0.6 3.4z"/>
			<path id="&lt;Path&gt;" class="s0" d="m103.5 172.8c-1.1-0.9-2-3.2-2.2-6.2 0.3 1 0.6 2 1 3 0.3 1 0.7 2 1.2 3.2z"/>
			<path id="&lt;Path&gt;" class="s0" d="m118.6 185.4c-2-0.1-3.7-0.9-5.3-2q2.7 0.8 5.3 1.7 0 0.1 0 0.3z"/>
			<path id="&lt;Path&gt;" class="s0" d="m126.8 116.4c-0.7-0.8-1.2-1.5-1.9-2.1-0.7-0.7-1.4-1.3-2.2-1.9 1.6 0.2 4 2.5 4.1 4z"/>
			<path id="&lt;Path&gt;" class="s0" d="m109.1 176.9c-1.9-1-3-2.7-3.9-4.9 1.4 1.8 2.7 3.3 3.9 4.9z"/>
			<path id="&lt;Path&gt;" class="s0" d="m102.8 169.4c1.1 2 2.1 3.9 3.2 5.8-0.2-0.1-0.4-0.2-0.5-0.3-1.3-1.6-2.1-3.4-2.7-5.5z"/>
			<path id="&lt;Path&gt;" class="s0" d="m106.5 141.9q0.2 3.4 0.3 6.2c-0.7-1.1-1-4.5-0.3-6.2z"/>
			<path id="&lt;Path&gt;" class="s0" d="m99.1 157c0 0.3 0 0.5 0 0.6q-0.4 2.3-0.9 4.7c-0.6-1-0.1-3.5 0.9-5.3z"/>
			<path id="&lt;Path&gt;" class="s0" d="m166.3 121.8c1.9-1.6 3.9-3.1 6-4.8-0.6 1-3.6 3.6-5.9 4.9q0-0.1-0.1-0.1z"/>
			<path id="&lt;Path&gt;" class="s0" d="m112.7 117.4c-1.4 1.8-2.6 3.7-3.3 5.9 0.4-2.4 1.5-4.3 3.3-5.9z"/>
			<path id="&lt;Path&gt;" class="s0" d="m106.4 120.8q-1.4 2.9-2.8 5.8c0.5-2.2 1.2-4.2 2.6-5.9q0.1 0 0.2 0.1z"/>
			<path id="&lt;Path&gt;" class="s0" d="m110.5 138.8c-0.4-2.3 0.1-4.5 1.1-6.6-0.4 2.2-1.2 4.3-1.1 6.6z"/>
			<path id="&lt;Path&gt;" class="s0" d="m163.6 116.1q0 0 0 0c-1.1 1.1-2.2 2.1-3.2 3.1 0.4-1.2 2.8-3.7 4.5-4.4q0 0.3 0 0.6-0.1 0-0.1 0-0.6 0.4-1.2 0.7z"/>
			<path id="&lt;Path&gt;" class="s0" d="m109.6 120c1-2.4 2.5-4.3 3.7-4.9q-1.8 2.4-3.7 4.9z"/>
			<path id="&lt;Path&gt;" class="s0" d="m62.8 159.5q-0.2 0.1-0.4 0.2c-0.2-0.4-0.4-0.8-0.6-1.3-0.3-1-0.6-2-0.9-3 0 0 0 0 0 0q-0.1-0.7-0.1-1.5 0.1 0 0.1 0 1 2.8 1.9 5.6 0 0 0 0z"/>
			<path id="&lt;Path&gt;" class="s0" d="m127.6 121.2c-0.5-1.8-1.8-3-2.7-4.6 0.2 0.2 0.4 0.3 0.6 0.5 1 0.9 1.8 2.1 2.4 3.3 0.2 0.4 0.2 0.7-0.3 0.8 0 0 0 0 0 0z"/>
			<path id="&lt;Path&gt;" class="s0" d="m111.7 120.9c-1.1 1.9-2.1 3.9-2.6 6.2-0.3-1.5 1-4.5 2.6-6.2z"/>
			<path id="&lt;Path&gt;" class="s0" d="m159.2 129.7q1.5-0.2 2.9-0.5 0.1 0.1 0.1 0.2c-0.1 0-0.2 0.2-0.4 0.2q-2.3 0.8-4.6 1.5c-0.3 0.1-0.7 0.5-1 0h-0.1q1.6-0.7 3.2-1.4z"/>
			<path id="&lt;Path&gt;" class="s0" d="m105.5 136c-0.2 2-0.4 4-0.7 5.9-0.5-1.1-0.2-4.2 0.7-5.9z"/>
			<path id="&lt;Path&gt;" class="s0" d="m145.5 160.6c-1.6 1.4-3.5 2.1-5.6 2.5 0.9-0.4 1.9-0.8 2.8-1.2 0.9-0.5 1.8-1 2.7-1.5q0 0.1 0.1 0.2z"/>
			<path id="&lt;Path&gt;" class="s0" d="m95.7 75.7q-1.7-0.9-3.5-1.7 0-0.1 0-0.2 0.8 0.1 1.6 0.2 0 0 0 0 0.8 0.4 1.6 0.8 0.6 0.4 1.1 0.7 0 0.1-0.1 0.2-0.3 0-0.7 0c0 0 0 0 0 0z"/>
			<path id="&lt;Path&gt;" class="s0" d="m147.2 158.2c-1.2 1.3-2.6 2.3-4.5 3 1.6-1.2 2.9-2.2 4.3-3.2q0.1 0.1 0.2 0.2z"/>
			<path id="&lt;Path&gt;" class="s0" d="m158.6 120c1.1-1.6 2.4-3.1 4.1-4.2-0.3 0.5-0.8 0.9-1.3 1.4q-0.6 0.7-1.3 1.4-0.7 0.8-1.3 1.6-0.1-0.1-0.2-0.2z"/>
			<path id="&lt;Path&gt;" class="s0" d="m126 119.2q0.8 1 1.6 2c0 0 0 0 0 0q0.2 0.6 0.4 1.3 0.2 0.6 0.3 1.3-0.1 0.1-0.2 0.1c-0.3-0.8-0.6-1.6-1-2.4-0.4-0.7-0.9-1.5-1.3-2.2q0.1-0.1 0.2-0.1z"/>
			<path id="&lt;Path&gt;" class="s0" d="m91.5 72.5c-1.7 0-3.2 0-4.7 0 1.2-0.7 3.7-0.7 4.7 0z"/>
			<path id="&lt;Path&gt;" class="s0" d="m138.2 164.6c0.9-0.3 1.9-0.5 2.7-0.9 0.9-0.3 1.7-0.7 2.6-1-1.5 1.4-3.3 1.7-5.3 1.9z"/>
			<path id="&lt;Path&gt;" class="s0" d="m105.5 144.4c-0.5-1.6-0.2-3.1 0.1-4.5 0.3 1.5 0 3-0.1 4.5z"/>
			<path id="&lt;Path&gt;" class="s0" d="m133.4 167.2c1.7-0.1 3.3-0.3 4.9-0.5-0.7 0.8-3.1 1.1-4.9 0.5z"/>
			<path id="&lt;Path&gt;" class="s0" d="m174.8 117.4c-1.3 0.9-2.6 1.8-4 2.8 0.8-1.3 2.9-2.8 4-2.8z"/>
			<path id="&lt;Path&gt;" class="s0" d="m112.1 136.3c-0.2 1.6-0.4 3.2-0.6 4.8-0.4-0.6-0.4-0.6-0.2-2.4 0.1-0.8 0.1-1.7 0.8-2.4z"/>
			<path id="&lt;Path&gt;" class="s0" d="m84.7 71.9c0.7-0.2 1.5-0.3 2.2-0.4q0.7-0.1 1.4 0c-0.7 0.6-1.5 0.4-2.2 0.6q-1.1 0.3-2.3 0.3 0.5-0.3 0.9-0.6c0 0 0 0.1 0 0.1z"/>
			<path id="&lt;Path&gt;" class="s0" d="m141.1 164.7c-1.4 1-3.2 1.5-5 1.3 1.6-0.4 3.2-0.8 5-1.3z"/>
			<path id="&lt;Path&gt;" class="s0" d="m93.8 74q-1.8-0.5-3.7-1c1.3-0.3 2.6 0 3.8 0.5 0.3 0.1 0.2 0.4-0.1 0.5q0 0 0 0z"/>
			<path id="&lt;Path&gt;" class="s0" d="m156.2 131.1q-0.8 0.3-1.6 0.5 0-0.1-0.1-0.1c0.6-0.4 1.2-0.8 1.8-1.1 0.7-0.4 1.5-0.7 2.3-1q0.5-0.2 0.6 0.3c0 0 0.1 0 0.1 0-1.2 0.2-2.2 0.7-3.2 1.4z"/>
			<path id="&lt;Path&gt;" class="s0" d="m135.4 83.1q1.9 1.2 3.9 2.5-2.5-0.5-4.1-2.4 0.1-0.1 0.2-0.1z"/>
			<path id="&lt;Path&gt;" class="s0" d="m134.5 103.7c1.6 0.7 2.4 2.1 3.1 3.6q-1.5-1.8-3.1-3.6z"/>
			<path id="&lt;Path&gt;" class="s0" d="m136.5 168.2c-1.7 0.8-3.2 0.5-4.8 0 1.6 0 3.1 0 4.8 0z"/>
			<path id="&lt;Path&gt;" class="s0" d="m135.9 81.6c0.6 0.5 1.1 1 1.7 1.4 0.6 0.4 1.2 0.7 1.7 1.1-1.4-0.4-2.7-1-3.6-2.2q0.1-0.1 0.2-0.3z"/>
			<path id="&lt;Path&gt;" class="s0" d="m156.1 120.2q1-1.1 1.9-2.2c0.2-0.2 0.3-0.5 0.6-0.6-0.5 1.6-1.9 2.4-2.6 3.8q-0.1 0-0.2-0.1 0.2-0.5 0.4-1z"/>
			<path id="&lt;Path&gt;" class="s0" d="m98.7 155.4c-0.3 1.2-0.7 2.5-1.1 3.9-0.4-1 0-2.4 1.1-3.9z"/>
			<path id="&lt;Path&gt;" class="s0" d="m138.5 88.2c-1.4-0.3-2.6-1-3.5-2.1 0.8 0 1.1 0.7 1.7 0.9 0.7 0.3 1.3 0.6 1.9 1q-0.1 0.1-0.1 0.2z"/>
			<path id="&lt;Path&gt;" class="s0" d="m104.4 123.1c0.3-1.6 1-2.9 2.2-3.8-0.4 0.6-0.8 1.2-1.2 1.9-0.4 0.6-0.7 1.2-1 1.9z"/>
			<path id="&lt;Path&gt;" class="s0" d="m99.4 161.1c0 1.6 0 3 0 4.5-0.7-0.9-0.7-2.3 0-4.5z"/>
			<path id="&lt;Path&gt;" class="s0" d="m112.7 139.4c0 1.5 0 3 0 4.7-0.6-1.1-0.6-3.6 0-4.7z"/>
			<path id="&lt;Path&gt;" class="s0" d="m157.4 120.4c0.9-1.4 1.9-2.8 3.2-3.8q0.2 0.1 0.3 0.2c-0.6 0.5-1.2 1.1-1.8 1.7-0.5 0.7-1 1.4-1.6 2.1q-0.1-0.1-0.1-0.2z"/>
			<path id="&lt;Path&gt;" class="s0" d="m141.1 119.7c-0.8-1.5-1.6-2.9-2.4-4.4 0.8 0.5 2 2.6 2.4 4.4z"/>
			<path id="&lt;Path&gt;" class="s0" d="m115.5 185.3c-1.5-0.3-2.7-1-3.9-1.8q0-0.1 0.1-0.2 1.9 0.9 3.8 1.7 0 0.2 0 0.3z"/>
			<path id="&lt;Path&gt;" class="s0" d="m155.8 166.9c-0.2 0.1-0.3 0.2-0.6 0.2 0.5-0.9 0.9-1.6 1.6-2.1 0 0 0 0 0 0 0.2-0.1 0.5-0.2 0.9-0.3-0.6 0.8-1.1 1.6-1.7 2.3q-0.1 0-0.2-0.1z"/>
			<path id="&lt;Path&gt;" class="s0" d="m114.1 146c-0.6-1.2-0.7-2.6-0.6-4.1 0.6 0.8 0.4 1.5 0.4 2.1q0.2 1 0.2 2z"/>
			<path id="&lt;Path&gt;" class="s0" d="m135.5 106c1.4 1 2.2 2.5 2.9 4.1q-1.5-2.1-2.9-4.1z"/>
			<path id="&lt;Path&gt;" class="s0" d="m140 115.9q-1.1-1.9-2.2-3.8c0.8 0.4 1.8 2 2.2 3.8z"/>
			<path id="&lt;Path&gt;" class="s0" d="m134.5 161.5c-1.3 0.8-2.8 1.2-4.4 1.4q2.2-0.8 4.3-1.6 0.1 0.1 0.1 0.2z"/>
			<path id="&lt;Path&gt;" class="s0" d="m138.3 157.6c0.1 0 0.3 0 0.6 0.1-1.3 1.1-2.8 1.5-4.3 1.8 0.9-0.4 1.8-0.7 2.6-1.1 0.4-0.3 0.7-0.6 1.1-0.9 0 0 0 0.1 0 0.1z"/>
			<path id="&lt;Path&gt;" class="s0" d="m145.9 106.9c-0.5-0.4-0.9-0.7-1.6-1.3 1.3 0.5 2.2 0.9 3.2 1.2 0 0 0 0 0 0q0.5 0.2 0.9 0.4c-0.9 0.5-1.7-0.2-2.5-0.4 0 0 0 0.1 0 0.1z"/>
			<path id="&lt;Path&gt;" class="s0" d="m138.7 89.4c-1.6-0.1-2.9-0.7-3.5-1.8 1.2 0.6 2.2 1.1 3.5 1.8z"/>
			<path id="&lt;Path&gt;" class="s0" d="m117.3 99.5q-2.1 0.8-4.1 1.5c0.7-0.9 2.5-1.6 4.1-1.5z"/>
			<path id="&lt;Path&gt;" class="s0" d="m154 130.7q1.1-0.5 2.3-1 0 0.1 0.1 0.2-1.6 1-3.3 2 0-0.1-0.1-0.2 0.5-0.5 1-1z"/>
			<path id="&lt;Path&gt;" class="s0" d="m156.2 120.1q-0.7 0.7-1.3 1.4c0.4-1.3 1.2-2.3 2.3-3.1q-0.5 0.9-1.1 1.8c0 0 0.1-0.1 0.1-0.1z"/>
			<path id="&lt;Path&gt;" class="s0" d="m138.5 86.5c-1.4 0-2.8-0.8-3.4-2 1.2 0.7 2.3 1.4 3.4 2z"/>
			<path id="&lt;Path&gt;" class="s0" d="m119.9 98.4c-1.5 0.3-2.8 0.5-4.1 0.8 0.6-0.7 2.1-1 4.1-0.8z"/>
			<path id="&lt;Path&gt;" class="s0" d="m107.5 145.7q0.3 1.8 0.5 3.5c-0.7-1.1-0.9-2.2-0.9-3.4q0.2 0 0.4-0.1z"/>
			<path id="&lt;Path&gt;" class="s0" d="m98.4 153.4c-0.3 1-0.7 2-1.1 3.2-0.3-1 0-1.9 1.1-3.2z"/>
			<path id="&lt;Path&gt;" class="s0" d="m154.2 120.5c0.5-0.6 0.9-1.2 1.5-1.8 0 0.7-0.3 1.1-1.8 3 0.1-0.6 0.2-0.9 0.3-1.3 0 0 0 0.1 0 0.1z"/>
			<path id="&lt;Path&gt;" class="s0" d="m128.6 164.2c1.2-0.4 2.5-0.8 3.8-1.2-0.7 0.7-1.6 1-3.8 1.2z"/>
			<path id="&lt;Path&gt;" class="s0" d="m144.3 106.6q-0.4-0.2-0.8-0.5-0.2-0.3-0.4-0.7 1.4 0.8 2.8 1.5c0 0 0-0.1 0-0.1 0.1 0.2 0.2 0.3 0.3 0.6-0.8 0-1.3-0.5-1.9-0.8z"/>
			<path id="&lt;Path&gt;" class="s0" d="m109.5 151.3c-1-0.8-0.9-2-1.4-3q0.2-0.1 0.3-0.1 0.2 0.3 0.3 0.6 0.3 0.7 0.7 1.5 0 0.5 0.1 1z"/>
			<path id="&lt;Path&gt;" class="s0" d="m109.5 151.3q-0.1-0.5-0.1-1c0-0.2 0-0.3 0-0.7 0.6 1.1 1 2 1.6 3-0.6-0.5-1.1-0.9-1.5-1.3z"/>
			<path id="&lt;Path&gt;" class="s0" d="m137.2 109.5c0.9 0.8 1.4 2 2.1 3.1q-0.1 0-0.2 0.1-1.1-1.5-2.1-3.1 0.1-0.1 0.2-0.1z"/>
			<path id="&lt;Path&gt;" class="s0" d="m141.4 121.9q-0.8-1.5-1.6-3c0.7 0.4 1.3 1.3 1.6 3z"/>
			<path id="&lt;Path&gt;" class="s0" d="m153.8 169.7c-0.4-0.1-0.3-0.3-0.1-0.5q0.6-0.5 1.2-0.9 0.2-0.1 0.3-0.2c0.1 0 0.2 0 0.4 0-0.4 0.5-0.8 0.9-1.2 1.2q-0.3 0.2-0.6 0.4z"/>
			<path id="&lt;Path&gt;" class="s0" d="m134 169.4c-1 0.7-2 0.3-3 0q1.5 0 3 0z"/>
			<path id="&lt;Path&gt;" class="s0" d="m97 154c0-1 0.5-1.7 0.9-2.4 0 0.9-0.3 1.7-0.9 2.4z"/>
			<path id="&lt;Path&gt;" class="s0" d="m142.7 153.5q0 0 0-0.1c-0.1 0-0.3 0-0.6 0 0.8-0.8 1.4-1.5 2-2.1q0.1 0 0.2 0.1-0.8 1-1.6 2.1z"/>
			<path id="&lt;Path&gt;" class="s0" d="m154 130.7q-0.9 0.3-1.8 0.7 0-0.1-0.1-0.2 1.1-0.7 2.1-1.4 0.1 0.1 0.2 0.2-0.2 0.3-0.4 0.7c0 0 0 0 0 0z"/>
			<path id="&lt;Path&gt;" class="s0" d="m158.5 160.6c0.6-0.7 1.3-1.3 2-2.1-0.3 1-0.8 1.6-1.8 2.3q-0.1-0.1-0.2-0.2z"/>
			<path id="&lt;Path&gt;" class="s0" d="m133.5 160.8c0.9-0.4 1.7-0.7 2.6-1.1-0.6 0.8-1.4 1.1-2.6 1.1z"/>
			<path id="&lt;Path&gt;" class="s0" d="m158.3 162.3q-0.3 0.1-0.6 0.2 0-0.1-0.1-0.2 0.9-0.9 1.9-1.7c-0.1 0.8-0.9 1.1-1.2 1.7 0 0 0 0 0 0z"/>
			<path id="&lt;Path&gt;" class="s0" d="m153.8 169.7q0.3-0.2 0.6-0.4c0.2 0 0.3 0 0.5 0-0.4 0.5-0.8 0.9-1.2 1.3q-0.2 0.1-0.3 0.2c-0.2 0-0.3 0.1-0.7 0.1 0.4-0.5 0.8-0.8 1.1-1.2z"/>
			<path id="&lt;Path&gt;" class="s0" d="m155.2 168.1q-0.1 0.1-0.3 0.2c-0.1 0-0.2 0-0.6-0.1 0.6-0.5 1.1-0.9 1.5-1.3q0.1 0.1 0.2 0.1c0.3-0.1 0.4 0 0.2 0.2-0.3 0.4-0.7 0.6-1 0.9z"/>
			<path id="&lt;Path&gt;" class="s0" d="m131.6 170.7c-0.9 0.1-1.6-0.2-2.3-0.7q1.1 0.2 2.3 0.4 0 0.1 0 0.3z"/>
			<path id="&lt;Path&gt;" class="s0" d="m143.7 93.5q-0.4 1-0.9 1.9-0.2-1.2 0.9-1.9z"/>
			<path id="&lt;Path&gt;" class="s0" d="m118.6 97.7c0.9-0.6 1.9-0.4 2.9-0.2q-1.4 0.1-2.9 0.2z"/>
			<path id="&lt;Path&gt;" class="s0" d="m126.4 170.6q0.9 0.4 1.7 0.7c-0.8 0.4-1.3-0.1-1.9-0.5q0.1-0.1 0.2-0.2z"/>
			<path id="&lt;Path&gt;" class="s0" d="m141.7 124q-0.6-1.1-1.2-2.1c0.9 0.4 1 1.3 1.2 2.1z"/>
			<path id="&lt;Path&gt;" class="s0" d="m157.6 163.7c-0.2 0-0.4 0.1-0.9 0.2 0.7-0.6 1.1-1.1 1.6-1.6 0 0 0 0 0 0 0.1 0 0.2 0.1 0.4 0.1q-0.5 0.6-0.9 1.1-0.1 0.1-0.2 0.2z"/>
			<path id="&lt;Path&gt;" class="s0" d="m149.5 95.8c-0.3-0.8-0.3-1.5 0.3-2.3-0.1 0.9-0.2 1.6-0.3 2.3z"/>
			<path id="&lt;Path&gt;" class="s0" d="m165.5 122.6q-1 0.7-2 1.4 0-0.1-0.1-0.2 1-0.7 2-1.3 0 0.1 0.1 0.1z"/>
			<path id="&lt;Path&gt;" class="s0" d="m141.2 124.6c0.7 0.4 0.8 1 0.7 1.7q-0.4-0.8-0.7-1.7z"/>
			<path id="&lt;Path&gt;" class="s0" d="m129.8 165.3q-1.2 0.1-2.4 0.2 0-0.1 0-0.2 1.2-0.2 2.3-0.4 0.1 0.2 0.1 0.4z"/>
			<path id="&lt;Path&gt;" class="s0" d="m97.5 150.3q0.1-0.1 0.3-0.2c0 0 0 0 0.2 0q-0.2 0.5-0.3 0.9c-0.2 0.2-0.3 0.5-0.5 0.8-0.4-0.6 0.3-1 0.3-1.5q0 0 0 0z"/>
			<path id="&lt;Path&gt;" class="s0" d="m128 170.5q0.8 0.2 1.8 0.5c-0.6 0.4-0.9 0.3-1.8-0.5z"/>
			<path id="&lt;Path&gt;" class="s0" d="m157.6 163.7q0.1-0.1 0.2-0.2c0.1 0.1 0.2 0.1 0.4 0.2-0.5 0.4-1 0.9-1.4 1.3 0 0 0 0 0 0-0.1-0.1-0.2-0.1-0.4-0.2 0.4-0.4 0.8-0.7 1.2-1.1z"/>
			<path id="&lt;Path&gt;" class="s0" d="m115 144.8c0.1 0.7 0.3 1.4 0.5 2.2-0.7-0.8-0.8-1.2-0.5-2.2z"/>
			<path id="&lt;Path&gt;" class="s0" d="m123.1 96.7q-1 0-2 0c0.6-0.4 1-0.4 2 0z"/>
			<path id="&lt;Path&gt;" class="s0" d="m147.8 95.9c-0.5-0.7-0.3-1.4 0.3-1.9q-0.2 0.9-0.3 1.9z"/>
			<path id="&lt;Path&gt;" class="s0" d="m157.4 93.8c0.6 0.5 0.8 1.1 0.6 1.8-0.2-0.6-0.4-1.1-0.6-1.8z"/>
			<path id="&lt;Path&gt;" class="s0" d="m145.2 93.8c-0.4 0.8-0.6 1.3-0.9 1.9-0.1-0.8-0.1-1 0.9-1.9z"/>
			<path id="&lt;Path&gt;" class="s0" d="m159.9 95.6c-0.3-0.7-0.4-1.2-0.6-1.8 0.8 0.7 0.8 0.8 0.6 1.8z"/>
			<path id="&lt;Path&gt;" class="s0" d="m146.1 95.8c-0.3-0.7-0.1-1.3 0.4-1.8q-0.2 0.9-0.4 1.8z"/>
			<path id="&lt;Path&gt;" class="s0" d="m152.8 95.4q0-0.8 0-1.6c0.6 0.9 0.6 1 0 1.6z"/>
			<path id="&lt;Path&gt;" class="s0" d="m151.6 130.6q0.1 0 0.2-0.1 0.4-0.2 0.8-0.4 0.1 0.1 0.1 0.2-0.6 0.6-1.3 1.1-0.1-0.1-0.2-0.2 0.2-0.3 0.4-0.6z"/>
			<path id="&lt;Path&gt;" class="s0" d="m126 166.2c0.6-0.1 1.2-0.2 2.1-0.3-0.8 0.6-1.5 0.4-2.1 0.3z"/>
			<path id="&lt;Path&gt;" class="s0" d="m156.4 95.4q-0.2-0.7-0.4-1.5c0.5 0.6 0.5 0.6 0.4 1.5z"/>
			<path id="&lt;Path&gt;" class="s0" d="m112.6 102.1q-0.7 0.6-1.4 1.2-0.1-0.1-0.2-0.2c0.4-0.5 0.9-0.9 1.5-1.1q0.1 0.1 0.1 0.1z"/>
			<path id="&lt;Path&gt;" class="s0" d="m97.5 150.3c-0.4-0.6-0.2-1 0.5-1.6-0.2 0.7-0.4 1.2-0.5 1.6q0 0 0 0z"/>
			<path id="&lt;Path&gt;" class="s0" d="m151.4 93.8q-0.1 0.8-0.1 1.7-0.1 0-0.1 0 0-0.9 0-1.7 0.1 0 0.2 0z"/>
			<path id="&lt;Path&gt;" class="s0" d="m154.7 95.2c-0.1-0.5-0.2-1-0.4-1.7 0.6 0.6 0.7 1.1 0.4 1.7z"/>
			<path id="&lt;Path&gt;" class="s0" d="m155.1 62.6q0.7 0.5 1.3 0.9-0.1 0.2-0.2 0.3-0.6-0.5-1.2-1 0-0.1 0.1-0.2z"/>
			<path id="&lt;Path&gt;" class="s0" d="m157.4 82.5c-0.1-0.3-0.3-0.4-0.3-0.6 0-0.1 0.3-0.3 0.3-0.2 0.2 0 0.4 0.2 0.4 0.3 0 0.1-0.2 0.3-0.4 0.5z"/>
			<path id="&lt;Path&gt;" class="s0" d="m124.9 166.7c0.4 0 0.8 0 1.4 0-0.6 0.4-1 0.2-1.4 0z"/>
			<path id="&lt;Path&gt;" class="s0" d="m125.8 119.3q-0.3-0.4-0.7-0.8c0.5 0 0.7 0.3 0.9 0.7q-0.1 0-0.2 0.1z"/>
			<path id="&lt;Path&gt;" class="s0" d="m112.5 102q0.6-0.3 1.2-0.7 0.1 0.1 0.2 0.2-0.7 0.3-1.3 0.6 0 0-0.1-0.1z"/>
			<path id="&lt;Path&gt;" class="s0" d="m125.3 170.9c0.3 0.2 0.6 0.3 1.1 0.6-0.7 0.3-0.9-0.1-1.2-0.3q0-0.1 0.1-0.3z"/>
			<path id="&lt;Path&gt;" class="s0" d="m145.3 80.8c-0.1 0.2-0.2 0.4-0.3 0.4-0.1-0.1-0.3-0.2-0.4-0.3 0.1-0.1 0.2-0.2 0.3-0.3 0.1 0 0.2 0.1 0.4 0.2z"/>
			<path id="&lt;Path&gt;" class="s0" d="m111.3 152.8q0.3 0.4 0.6 0.8-0.1 0-0.1 0.1-0.4-0.3-0.7-0.7 0.1-0.1 0.2-0.2z"/>
			<path id="&lt;Path&gt;" class="s0" d="m160.7 125.5q0.5-0.3 1-0.5 0 0.1 0.1 0.1-0.5 0.3-1 0.6 0-0.1-0.1-0.2z"/>
			<path id="&lt;Path&gt;" class="s0" d="m165.4 122.5q0.5-0.4 0.9-0.7 0.1 0 0.1 0.1-0.4 0.4-0.9 0.7-0.1 0-0.1-0.1z"/>
			<path id="&lt;Path&gt;" class="s0" d="m123.4 95.9q0.4 0 0.8 0 0.1 0.1 0.1 0.1-0.5 0-0.9 0 0 0 0-0.1z"/>
			<path id="&lt;Compound Path&gt;" fill-rule="evenodd" class="s0" d="m147 223.1c-0.3-0.3-0.7-0.5-1-0.7-1.2-0.8-1.2-0.9-0.9-2.2 0.2-1.1 0.5-2.1 1.2-3 0.2-0.4 0.5-0.7 0.8-0.9 1-0.6 1.9-0.3 2.1 0.8 0.3 1.9 0 3.7-1.2 5.2-0.3 0.3-0.6 0.5-1 0.8zm0-2.6c1-0.8 1.4-1.7 1.5-2.8 0-0.3-0.1-0.9-0.3-1-0.3-0.1-0.8 0.1-1.1 0.3-0.7 0.7-1.1 1.6-1.2 2.7 0.3 0.2 0.7 0.5 1.1 0.8z"/>
			<path id="&lt;Path&gt;" class="s0" d="m203.5 110.2c0.3 0.3 0.5 0.5 0.5 0.7 0.1 0.2-0.2 0.5-0.3 0.5-0.2-0.1-0.5-0.3-0.6-0.4 0-0.2 0.2-0.4 0.4-0.8z"/>
			<path id="&lt;Path&gt;" class="s0" d="m189 101.9c0-0.1-0.1-0.3 0-0.4q0.1-0.2 0.4-0.4c0 0 0.2 0.1 0.2 0.2-0.1 0.1-0.1 0.3-0.3 0.5 0 0-0.2 0-0.3 0.1 0 0 0 0 0 0z"/>
			<path id="&lt;Path&gt;" class="s0" d="m75.6 105.1c-0.3 0.2-0.5 0.5-0.7 0.4-0.2 0-0.4-0.3-0.4-0.5 0-0.2 0.3-0.5 0.5-0.5 0.1 0 0.3 0.3 0.6 0.6z"/>
			<path id="&lt;Compound Path&gt;" fill-rule="evenodd" class="s0" d="m70.4 96.7c-0.1 0.8-0.4 1.7-1.4 2.1-0.9 0.4-1.8 0.1-2.5-0.6-0.9-0.8-1.4-1.7-1.4-2.9 0.1-1.8 1.6-2.7 3.2-2 1.1 0.5 2.1 2.1 2.1 3.4zm-0.9-0.2c-0.1-0.8-0.4-1.6-1.1-2.1-0.5-0.3-1-0.6-1.6-0.3-0.5 0.3-0.7 0.8-0.7 1.4-0.1 0.9 0.5 1.5 1 2.1 0.4 0.4 1 0.7 1.6 0.4 0.6-0.3 0.8-0.8 0.8-1.5z"/>
			<path id="&lt;Path&gt;" class="s0" d="m125.3 82.4c0.4 0.8 0.7 1.6 1.8 1.3q-0.4-0.8-0.8-1.6 0.1 0 0.1-0.1 0.6 0.6 1.2 1.2c0.1-0.1 0.2-0.2 0.2-0.2 0.4-0.7 0.8-1.5 0.3-2.2-0.5-0.7-1.4-0.5-2.1-0.3-0.2 0-0.3 0.1-0.5 0 0.3-0.2 0.6-0.5 1-0.7-0.1-0.5-0.3-1.1-0.5-1.6 0.5 0.3 0.5 0.3 1.1 1.6 0-1.5-0.8-2.5-1.5-3.5 0.6 0.1 0.8 0.5 1 0.9 0.4 0.7 0.6 1.4 0.9 2.1q0.2 0.3 0.5 0.5c-0.2-1.7-0.9-3.3-2.3-4.4-0.6-0.4-1-0.3-1.2 0.4-0.2 0.7-0.2 1.4-0.3 2.1-0.7-0.6-0.7-1.9 0-2.8 0.5-0.7 1.4-0.9 2.3-0.3 1 0.7 1.6 1.6 2.1 2.7 0.6 1.3 0.8 2.7 0.6 4.2-0.1 1-0.5 1.9-1.4 2.4-1.4 0.8-2.5 0-2.5-1.7z"/>
		</g>
	</g>
</svg>